<svg width="39" height="39" viewBox="0 0 39 39" fill="none" xmlns="http://www.w3.org/2000/svg">
<path fill-rule="evenodd" clip-rule="evenodd" d="M36.5625 19.5001C36.5625 19.8233 36.4341 20.1333 36.2055 20.3619C35.977 20.5904 35.667 20.7188 35.3437 20.7188L6.59831 20.7188L14.2691 28.3872C14.498 28.616 14.6265 28.9264 14.6265 29.2501C14.6265 29.5737 14.498 29.8841 14.2691 30.113C14.0403 30.3418 13.7299 30.4704 13.4062 30.4704C13.0826 30.4704 12.7722 30.3418 12.5434 30.113L2.79337 20.3629C2.67988 20.2497 2.58983 20.1152 2.52839 19.9672C2.46695 19.8191 2.43532 19.6604 2.43532 19.5001C2.43532 19.3398 2.46695 19.181 2.52839 19.033C2.58983 18.8849 2.67988 18.7504 2.79337 18.6372L12.5434 8.8872C12.7722 8.65835 13.0826 8.52978 13.4062 8.52978C13.7299 8.52978 14.0403 8.65835 14.2691 8.8872C14.498 9.11605 14.6265 9.42643 14.6265 9.75007C14.6265 10.0737 14.498 10.3841 14.2691 10.6129L6.59831 18.2813L35.3437 18.2813C35.667 18.2813 35.977 18.4097 36.2055 18.6383C36.4341 18.8668 36.5625 19.1768 36.5625 19.5001V19.5001Z" fill="white"/>
</svg>
