<svg width="0" height="0" class="hidden">
<symbol  id="logos-cross" viewBox="0 0 24 24" role="img" fill="currentColor" xmlns="http://www.w3.org/2000/svg">
<path d="M20 20L4 4.00003M20 4L4.00002 20" stroke="currentColor" stroke-width="2" stroke-linecap="round"/>
</symbol>
<symbol xmlns="http://www.w3.org/2000/svg"  viewBox="0 0 512 512"><path d="M0 256C0 114.6 114.6 0 256 0C397.4 0 512 114.6 512 256C512 397.4 397.4 512 256 512C114.6 512 0 397.4 0 256zM175 208.1L222.1 255.1L175 303C165.7 312.4 165.7 327.6 175 336.1C184.4 346.3 199.6 346.3 208.1 336.1L255.1 289.9L303 336.1C312.4 346.3 327.6 346.3 336.1 336.1C346.3 327.6 346.3 312.4 336.1 303L289.9 255.1L336.1 208.1C346.3 199.6 346.3 184.4 336.1 175C327.6 165.7 312.4 165.7 303 175L255.1 222.1L208.1 175C199.6 165.7 184.4 165.7 175 175C165.7 184.4 165.7 199.6 175 208.1V208.1z"/></symbol>
  <symbol id="logos-menu-burger" xmlns="http://www.w3.org/2000/svg" role="img" fill="currentColor" viewBox="0 0 16 16">
    <path d="M 1 2 L 1 3 L 14 3 L 14 2 Z M 1 7 L 1 8 L 14 8 L 14 7 Z M 1 12 L 1 13 L 14 13 L 14 12 Z"/>
  </symbol>
  <symbol id="logos-instagram" xmlns:xlink="http://www.w3.org/1999/xlink" xmlns="http://www.w3.org/2000/svg" role="img" fill="currentColor" viewBox="0 0 494 494" aria-hidden="true" focusable="false" >
    <path d="M247 45.1c65.4 0 73.2.2 99 1.4 23.9 1.1 36.9 5.1 45.5 8.4 11.4 4.4 19.6 9.8 28.2 18.3 8.6 8.6 13.9 16.7 18.3 28.2 3.4 8.6 7.3 21.6 8.4 45.5 1.2 25.8 1.4 33.6 1.4 99s-.2 73.2-1.4 99c-1.1 23.9-5.1 36.9-8.4 45.5-4.4 11.4-9.8 19.6-18.3 28.2-8.6 8.6-16.7 13.9-28.2 18.3-8.6 3.4-21.6 7.3-45.5 8.4-25.8 1.2-33.6 1.4-99 1.4s-73.2-.2-99-1.4c-23.9-1.1-36.9-5.1-45.5-8.4-11.4-4.4-19.6-9.8-28.2-18.3-8.6-8.6-13.9-16.7-18.3-28.2-3.4-8.6-7.3-21.6-8.4-45.5-1.2-25.8-1.4-33.6-1.4-99s.2-73.2 1.4-99c1.1-23.9 5.1-36.9 8.4-45.5 4.4-11.4 9.8-19.6 18.3-28.2 8.6-8.6 16.7-13.9 28.2-18.3 8.6-3.4 21.6-7.3 45.5-8.4 25.8-1.1 33.6-1.4 99-1.4M247 1c-66.5 0-74.9.3-101 1.5-26.1 1.2-43.9 5.3-59.5 11.4-16.1 6.3-29.8 14.6-43.4 28.3-13.6 13.6-22 27.3-28.3 43.4-6 15.5-10.1 33.3-11.3 59.4C2.3 171.1 2 179.5 2 246s.3 74.9 1.5 101c1.2 26.1 5.3 43.9 11.4 59.5 6.3 16.1 14.6 29.8 28.3 43.4 13.6 13.6 27.3 22 43.4 28.3 15.6 6.1 33.4 10.2 59.5 11.4 26.1 1.2 34.5 1.5 101 1.5s74.9-.3 101-1.5c26.1-1.2 43.9-5.3 59.5-11.4 16.1-6.3 29.8-14.6 43.4-28.3 13.6-13.6 22-27.3 28.3-43.4 6.1-15.6 10.2-33.4 11.4-59.5 1.2-26.1 1.5-34.5 1.5-101s-.3-74.9-1.5-101c-1.2-26.1-5.3-43.9-11.4-59.5-6.3-16.1-14.6-29.8-28.3-43.4-13.6-13.6-27.3-22-43.4-28.3-15.7-6-33.5-10.1-59.6-11.3C321.9 1.3 313.5 1 247 1z"></path>
    <path d="M245 119.2c-69.5 0-125.8 56.3-125.8 125.8S175.5 370.8 245 370.8 370.8 314.5 370.8 245 314.5 119.2 245 119.2zm0 207.5c-45.1 0-81.7-36.6-81.7-81.7s36.6-81.7 81.7-81.7 81.7 36.6 81.7 81.7-36.6 81.7-81.7 81.7z"></path>
    <circle cx="375.8" cy="114.2" r="29.4" fill="#FFFFFF"></circle>
  </symbol>
    <symbol id="logos-facebook" xmlns:xlink="http://www.w3.org/1999/xlink" xmlns="http://www.w3.org/2000/svg" role="img"  fill="currentColor"  viewBox="0 0 500 1074.3" aria-hidden="true" focusable="false" >
    <path d="M108.9 212.9v148.5H0v178.2h108.9v534.7h222.8V539.6h148.5s14.9-84.2 19.8-183.2H331.7V232.6s24.8-44.6 49.5-44.6H500V-.1c-59.4 5-133.7 5-163.4 5-232.6.1-227.7 183.2-227.7 208z"></path>
  </symbol>
  <symbol id="logos-download" xmlns:xlink="http://www.w3.org/1999/xlink" xmlns="http://www.w3.org/2000/svg" viewBox="0 0 20 20">
  <path d="M13 8V2H7v6H2l8 8 8-8h-5zM0 18h20v2H0v-2z" fill="currentColor">
  </path>
  </symbol>
  <symbol id="logos-club-sandwich-logo" role="img"  fill="currentColor" viewBox="0 0 164 186" xmlns="http://www.w3.org/2000/svg">
<g clip-path="url(#clip0_210_174)">
<path d="M138.215 169.914C138.246 169.347 138.238 168.781 138.176 168.198C137.749 164.038 137.609 160.391 137.57 156.409C137.578 160.872 137.702 164.807 138.168 169.363C138.183 169.549 138.199 169.735 138.215 169.914Z"/>
<path d="M140.442 98.9373L140.419 98.9528C142.219 96.5857 143.127 92.6119 143.127 87.0859C143.127 83.1199 141.855 78.9599 139.441 75.0482C136.895 70.9115 133.209 67.1706 128.497 63.9419C120.969 58.7884 107.348 52.6338 85.182 52.6338H84.9647C77.4208 52.6338 70.8858 53.3478 65.2201 54.4965L65.2589 54.481C52.1813 56.592 42.2546 62.2965 36.2397 66.6971C33.8647 68.3425 31.7614 70.1276 29.9298 72.0214C29.7901 72.1611 29.697 72.2542 29.6504 72.3085C29.6349 72.3163 29.6271 72.3318 29.6193 72.3396H29.6116C27.3608 74.4739 25.4748 76.7557 23.9847 79.185C21.5709 83.0966 20.2981 87.2567 20.2981 91.2227C20.2981 97.8663 21.6097 102.282 24.202 104.339C25.048 105.014 25.9017 105.317 26.5925 105.433C25.2886 107.102 23.1154 110.595 23.1154 115.29C23.1154 118.077 23.3793 122.369 23.682 127.336C24.0778 133.723 24.5202 140.972 24.5202 147.003C24.5202 149.284 24.5357 151.333 24.5435 153.313C24.5901 160.531 24.6211 165.746 23.9614 172.203C23.5501 176.216 25.1644 180.066 28.3931 182.782C30.4265 184.497 33.0343 185.654 35.9447 186.143C37.0313 186.329 38.1567 186.422 39.3131 186.422C41.5872 186.422 43.9776 186.073 46.469 185.374C60.2995 181.501 78.0495 181.695 78.228 181.695H78.4686C78.6471 181.695 96.397 181.501 110.228 185.374C112.859 186.104 115.373 186.453 117.756 186.406C117.927 186.406 118.09 186.406 118.253 186.399C132.495 186.174 137.345 176.263 137.555 175.812C139.061 173.515 139.744 170.83 139.464 168.067C138.797 161.609 138.835 156.394 138.874 149.176C138.89 147.197 138.898 145.148 138.898 142.866C138.898 136.835 139.348 129.586 139.744 123.191C140.046 118.232 140.31 113.94 140.31 111.154C140.31 107.048 138.649 103.873 137.361 102.019C139.045 101.002 140.442 98.9373 140.442 98.9373V98.9373ZM138.16 99.3797C137.671 99.7212 137.198 99.8997 136.794 99.9929C136.554 100.047 136.336 100.07 136.15 100.078C135.816 100.094 135.599 100.047 135.576 100.047C135.537 100.032 135.49 100.032 135.444 100.032C135.211 100.032 134.986 100.156 134.869 100.373C134.769 100.567 134.769 100.792 134.869 100.979C134.893 101.033 134.939 101.087 134.986 101.142C134.994 101.142 135.063 101.211 135.18 101.343C135.219 101.382 135.258 101.429 135.304 101.483C135.312 101.491 135.32 101.499 135.327 101.514C135.421 101.623 135.529 101.755 135.661 101.91C135.785 102.073 135.933 102.259 136.08 102.469C136.111 102.515 136.15 102.562 136.181 102.608C136.453 102.989 136.748 103.447 137.043 103.967C137.112 104.091 137.182 104.215 137.252 104.347C137.345 104.525 137.438 104.704 137.532 104.898C137.609 105.045 137.679 105.201 137.749 105.364C137.912 105.728 138.067 106.109 138.207 106.512C138.277 106.706 138.339 106.9 138.401 107.102C138.463 107.304 138.517 107.506 138.572 107.715C138.735 108.344 138.859 109.011 138.936 109.71C138.983 110.176 139.014 110.657 139.014 111.154V111.992C138.967 114.731 138.727 118.651 138.447 123.114C138.059 129.524 137.609 136.797 137.609 142.866C137.609 145.148 137.594 147.189 137.586 149.168C137.578 150.371 137.57 151.52 137.57 152.63C137.57 152.583 137.57 152.529 137.57 152.474C137.57 152.529 137.57 152.583 137.57 152.63C137.563 153.336 137.563 154.019 137.563 154.686C137.563 155.268 137.563 155.843 137.57 156.409C137.609 160.391 137.749 164.039 138.176 168.199C138.238 168.781 138.246 169.347 138.215 169.914C138.207 170.077 138.191 170.24 138.168 170.403C138.137 170.628 138.106 170.845 138.067 171.063C137.865 172.234 137.477 173.368 136.895 174.415C136.251 175.58 135.382 176.643 134.303 177.566C134.272 177.597 134.233 177.629 134.202 177.66C134.101 177.745 134.008 177.823 133.907 177.9C133.806 177.978 133.713 178.055 133.604 178.125C133.038 178.552 132.417 178.932 131.765 179.266C131.315 179.499 130.841 179.709 130.352 179.903C129.863 180.081 129.367 180.244 128.855 180.384C128.342 180.523 127.807 180.64 127.263 180.733C124.237 181.245 120.884 180.989 117.298 179.988C103.367 176.084 85.5468 176.263 85.182 176.27H84.9647C84.9647 176.27 84.7629 176.263 84.4369 176.263C81.3635 176.263 65.5073 176.449 52.8487 179.988C49.263 180.989 45.9102 181.245 42.8833 180.733C40.1979 180.283 37.7997 179.22 35.9447 177.66C33.0498 175.223 31.6062 171.777 31.971 168.199C32.6385 161.671 32.6074 156.433 32.5608 149.168C32.5531 147.189 32.5376 145.148 32.5376 142.866C32.5376 136.797 32.0874 129.524 31.6994 123.114C31.3889 118.17 31.1328 113.901 31.1328 111.154C31.1328 105.162 35.1221 101.18 35.1609 101.142C35.3704 100.932 35.417 100.622 35.2773 100.365C35.1376 100.109 34.8427 99.9773 34.5632 100.047C34.5089 100.055 33.1352 100.334 31.6916 99.1624C30.1549 97.9128 28.3155 94.8084 28.3155 87.0859C28.3155 83.3605 29.5184 79.4333 31.808 75.7235C32.491 74.6214 33.2594 73.5426 34.1131 72.4948C34.2838 72.2852 34.4546 72.0757 34.6331 71.8661C34.9824 71.4548 35.3549 71.0434 35.7352 70.6399C35.7662 70.6011 35.805 70.57 35.8361 70.5312C37.7065 68.5598 39.8952 66.7127 42.3788 65.013C43.4343 64.2834 44.6218 63.5383 45.9335 62.7932C47.0744 62.1491 48.3084 61.5049 49.6511 60.8685C50.3962 60.5192 51.1723 60.1699 51.9795 59.8362C54.2923 58.8583 56.869 57.9425 59.7329 57.1353C60.4547 56.9335 61.192 56.7395 61.9526 56.5455C62.6279 56.3747 63.3186 56.2117 64.0249 56.0643C65.453 55.746 66.9354 55.4589 68.4876 55.2105C69.0775 55.1096 69.6751 55.0165 70.2804 54.9311C70.8858 54.8457 71.5067 54.7604 72.1276 54.6828C72.7408 54.6129 73.3617 54.543 73.9981 54.4732C74.8208 54.3878 75.659 54.3102 76.5127 54.2481C76.8775 54.2171 77.25 54.1938 77.6226 54.1705C78.0339 54.1395 78.4453 54.1162 78.8644 54.0929C78.9575 54.0851 79.0507 54.0774 79.1515 54.0774C79.6716 54.0463 80.2071 54.023 80.7426 54.0075C81.9378 53.961 83.1641 53.9377 84.4137 53.9299H85.182C107.014 53.9299 120.395 59.9526 127.768 65.013C132.332 68.1407 135.886 71.742 138.339 75.7235C140.628 79.4333 141.831 83.3605 141.831 87.0859C141.831 87.3653 141.831 87.637 141.824 87.9009C141.808 88.7003 141.777 89.4531 141.723 90.1516C141.668 90.8501 141.598 91.4943 141.513 92.0997C141.459 92.5033 141.397 92.8836 141.319 93.2483C140.985 95.0334 140.496 96.3451 139.953 97.3152C139.472 98.1767 138.944 98.7666 138.455 99.1624C138.354 99.2478 138.261 99.3176 138.16 99.3797V99.3797Z" fill="currentColor"/>
<path d="M108.404 111.774V88.8554C108.404 85.6267 105.78 83.0034 102.552 83.0034C99.323 83.0034 96.6997 85.6267 96.6997 88.8554V96.9116C96.6997 97.1444 96.8239 97.3539 97.0257 97.4704L98.4926 98.3163L102.032 100.358L97.0257 103.252C96.8239 103.369 96.6997 103.578 96.6997 103.811V113.606C96.0167 114.196 95.4036 114.871 94.8681 115.624C94.6663 115.919 94.7361 116.322 95.0233 116.524C95.2251 116.664 95.489 116.679 95.6908 116.571C95.7761 116.524 95.8615 116.454 95.9236 116.369C96.4281 115.647 97.0257 115.011 97.6854 114.46C97.9648 114.227 98.252 114.01 98.5547 113.816C98.9194 113.575 99.292 113.358 99.68 113.171C101.015 112.519 102.49 112.17 104.011 112.17C105.09 112.17 106.13 112.341 107.1 112.667C107.317 112.737 107.534 112.814 107.744 112.907C107.961 112.993 108.179 113.094 108.388 113.202C111.648 114.817 113.891 118.185 113.891 122.066C113.891 127.514 109.451 131.954 104.003 131.954C103.894 131.954 103.793 131.977 103.708 132.023C103.499 132.132 103.359 132.349 103.359 132.598C103.359 132.955 103.646 133.242 104.003 133.242C110.165 133.242 115.187 128.228 115.187 122.058C115.187 117.448 112.385 113.482 108.388 111.774H108.404Z" fill="currentColor"/>
<path d="M104.345 126.288V126.272C104.655 125.822 104.95 125.403 105.245 125.023C105.462 124.743 105.408 124.332 105.128 124.115C104.849 123.897 104.438 123.944 104.22 124.223C104.143 124.324 104.065 124.425 103.98 124.518C103.972 124.526 103.964 124.542 103.956 124.549C103.157 125.519 102.249 126.427 101.24 127.242C101.209 127.273 101.17 127.297 101.139 127.328C97.3594 130.37 92.3922 132.179 87.1379 132.411C82.8149 132.217 78.5772 130.921 75.1235 128.748C78.4065 124.371 78.0572 118.123 74.0757 114.141C74.0291 114.095 73.9826 114.048 73.9282 114.002C73.9438 113.94 73.9593 113.878 73.9593 113.808V88.8476C73.9593 85.6189 71.336 82.9956 68.1073 82.9956C64.8786 82.9956 62.2553 85.6189 62.2553 88.8476V96.9037C62.2553 97.1366 62.3795 97.3461 62.5813 97.4625L67.5873 100.357L62.5813 103.252C62.3795 103.369 62.2553 103.578 62.2553 103.811V111.58C60.7729 112.131 59.4147 113.001 58.2661 114.157C58.0099 114.405 58.0099 114.817 58.2661 115.073C58.3902 115.197 58.5532 115.259 58.724 115.259C58.8947 115.259 59.0577 115.197 59.1819 115.073C60.0977 114.157 61.1377 113.466 62.2631 112.985C62.4727 112.892 62.69 112.814 62.9073 112.737C63.1168 112.659 63.3342 112.597 63.5515 112.535C65.8488 111.906 68.3402 112.124 70.5133 113.179C70.9014 113.365 71.2817 113.583 71.6464 113.823C71.9414 114.017 72.2363 114.235 72.5157 114.467C72.7408 114.654 72.9659 114.855 73.1754 115.073C76.7068 118.604 77.0017 124.169 74.0602 128.042C73.9826 128.15 73.8972 128.259 73.8041 128.368C73.6178 128.593 73.416 128.81 73.2064 129.027C73.1987 129.035 73.1832 129.051 73.1754 129.059C73.1366 129.097 73.09 129.144 73.0512 129.183C72.9426 129.291 72.8261 129.4 72.7097 129.493C72.4924 129.687 72.2673 129.873 72.0345 130.044C70.3503 131.286 68.3169 131.953 66.1903 131.953C63.5515 131.953 61.0679 130.921 59.1974 129.059C59.0732 128.934 58.9025 128.872 58.7395 128.872C58.5765 128.872 58.4058 128.934 58.2816 129.059C58.0255 129.307 58.0255 129.718 58.2816 129.974C60.3926 132.085 63.2022 133.25 66.1903 133.25C68.5031 133.25 70.7151 132.551 72.57 131.255C74.1456 134.973 75.8763 140.871 75.9539 148.896V148.974C75.9539 149.145 75.9539 149.315 75.9539 149.486C75.9539 150.681 76.1014 151.814 76.3886 152.862C77.056 155.307 78.5074 157.325 80.5719 158.706C82.419 159.941 84.7397 160.623 87.0991 160.623H87.1922C89.5516 160.623 91.8645 159.941 93.7194 158.706C95.7839 157.325 97.2353 155.307 97.9027 152.862C98.1899 151.814 98.3373 150.674 98.3373 149.486V149.393C98.3373 149.315 98.3373 149.238 98.3373 149.168C98.3917 140.01 100.565 133.537 102.466 129.617C102.536 129.478 102.606 129.338 102.676 129.198C103.204 128.158 103.762 127.188 104.337 126.311C104.337 126.311 104.337 126.303 104.345 126.296V126.288ZM96.6532 152.513C95.2717 157.542 90.7003 159.327 87.1767 159.327H87.0991C83.5755 159.327 79.0041 157.55 77.6226 152.513C77.3665 151.574 77.2345 150.549 77.2345 149.478C80.4244 149.044 83.6298 150.123 85.9194 152.404C86.8197 153.305 87.5337 154.337 88.0459 155.486C88.1546 155.726 88.3874 155.866 88.6358 155.866C88.7212 155.866 88.8143 155.85 88.8997 155.812C89.2256 155.664 89.3731 155.284 89.2256 154.958C88.7212 153.825 88.0382 152.792 87.2077 151.877C89.9009 149.564 93.6418 148.78 97.0412 149.843C97.0179 150.782 96.886 151.683 96.6609 152.513H96.6532Z" fill="currentColor"/>
<path d="M98.4149 161.143C96.1409 163.906 91.9576 165.544 87.2077 165.544C87.1689 165.544 87.1223 165.544 87.0835 165.544C82.3337 165.544 78.1503 163.899 75.8763 161.143C75.6512 160.872 75.2399 160.825 74.9682 161.058C74.6966 161.283 74.65 161.694 74.8829 161.966C77.3975 165.016 81.9534 166.832 87.0835 166.832H87.2155C92.3456 166.832 96.9015 165.016 99.4161 161.958C99.6412 161.679 99.6024 161.275 99.3308 161.05C99.0513 160.825 98.6478 160.864 98.4227 161.136L98.4149 161.143Z" fill="currentColor"/>
<path d="M62.7675 81.6375C64.18 80.1318 66.0893 79.3014 68.1538 79.2936C70.2105 79.3014 72.1276 80.1396 73.5401 81.6375C73.6643 81.7695 73.8428 81.8393 74.0135 81.8393C74.1688 81.8393 74.3317 81.785 74.4559 81.6608C74.7198 81.4202 74.7276 81.0089 74.487 80.745C72.8571 79.0142 70.5753 78.013 68.2004 77.9897H68.1227C65.7478 78.013 63.4582 79.0142 61.8361 80.745C61.5878 81.0089 61.6033 81.4124 61.8672 81.6608C62.1311 81.9014 62.5347 81.8936 62.783 81.6298L62.7675 81.6375Z" fill="currentColor"/>
<path d="M96.6998 81.8394C96.8706 81.8394 97.0413 81.7695 97.1733 81.6376C98.5858 80.1319 100.495 79.3014 102.56 79.2937C104.616 79.3014 106.533 80.1397 107.946 81.6376C108.186 81.9014 108.598 81.9092 108.862 81.6686C109.126 81.428 109.133 81.0167 108.893 80.7528C107.263 79.022 104.981 78.0208 102.606 77.9976H102.528C100.154 78.0208 97.8718 79.022 96.2419 80.7528C95.9935 81.0167 96.0091 81.4203 96.2729 81.6686C96.3971 81.785 96.5601 81.8471 96.7153 81.8471L96.6998 81.8394Z" fill="currentColor"/>
<path d="M87.1378 128.003C85.6166 128.003 84.1885 127.413 83.1175 126.335C82.8691 126.086 82.4578 126.086 82.2017 126.335C81.9533 126.583 81.9533 126.994 82.2017 127.25C83.5211 128.57 85.2751 129.292 87.1378 129.292C89.0005 129.292 90.7545 128.562 92.0739 127.25C93.3934 125.931 94.1151 124.177 94.1151 122.314C94.1151 120.452 93.3856 118.698 92.0739 117.378C90.7545 116.059 89.0005 115.337 87.1378 115.337C85.2751 115.337 83.5211 116.066 82.2017 117.378C81.9533 117.626 81.9533 118.038 82.2017 118.294C82.45 118.55 82.8614 118.55 83.1175 118.294C84.1963 117.223 85.6244 116.625 87.1378 116.625C88.6512 116.625 90.0871 117.215 91.1659 118.294C92.2369 119.373 92.8345 120.801 92.8345 122.322C92.8345 123.843 92.2447 125.271 91.1659 126.342C90.0871 127.413 88.659 128.011 87.1378 128.011V128.003Z" fill="currentColor"/>
<path d="M100.922 123.176H100.976C101.248 123.176 101.512 123.075 101.714 122.888C101.931 122.694 102.055 122.423 102.071 122.128C102.086 121.833 101.985 121.553 101.783 121.336C101.589 121.119 101.318 120.995 101.023 120.979C100.728 120.964 100.448 121.064 100.231 121.266C99.781 121.678 99.7499 122.376 100.153 122.826C100.254 122.935 100.371 123.02 100.495 123.082C100.627 123.144 100.767 123.176 100.914 123.183L100.922 123.176Z" fill="currentColor"/>
<path d="M109.195 118.992C109.413 118.798 109.537 118.527 109.552 118.232C109.568 117.937 109.467 117.657 109.265 117.44C109.071 117.223 108.799 117.099 108.505 117.083C108.21 117.068 107.93 117.168 107.713 117.37C107.263 117.782 107.232 118.48 107.643 118.93C107.86 119.171 108.155 119.287 108.458 119.287C108.722 119.287 108.986 119.194 109.195 119V118.992Z" />
<path d="M107.255 127.343C107.364 127.46 107.496 127.553 107.628 127.615C107.767 127.677 107.915 127.708 108.062 127.708C108.326 127.708 108.59 127.615 108.799 127.421C109.017 127.227 109.141 126.955 109.157 126.66C109.172 126.366 109.071 126.086 108.869 125.869C108.675 125.652 108.404 125.527 108.109 125.512C107.814 125.496 107.534 125.597 107.317 125.799C106.867 126.21 106.836 126.909 107.247 127.351L107.255 127.343Z" fill="currentColor"/>
<path d="M62.3174 123.176H62.3717C62.6433 123.176 62.9072 123.075 63.109 122.888C63.3263 122.694 63.4505 122.423 63.466 122.128C63.4815 121.833 63.3807 121.553 63.1789 121.336C62.9848 121.119 62.7132 120.995 62.4183 120.979C62.1233 120.964 61.8439 121.064 61.6266 121.266C61.1765 121.678 61.1454 122.376 61.549 122.826C61.6499 122.935 61.7663 123.02 61.8905 123.082C62.0224 123.144 62.1621 123.176 62.3096 123.183L62.3174 123.176Z" fill="currentColor"/>
<path d="M70.5986 118.992C70.8159 118.798 70.9401 118.527 70.9556 118.232C70.9711 117.937 70.8702 117.657 70.6684 117.44C70.4744 117.223 70.2027 117.099 69.9078 117.083C69.6129 117.068 69.3335 117.168 69.1162 117.37C68.666 117.782 68.635 118.48 69.0463 118.93C69.2636 119.171 69.5586 119.287 69.8613 119.287C70.1251 119.287 70.389 119.194 70.5986 119V118.992Z" />
<path d="M68.6583 127.343C68.767 127.46 68.8989 127.553 69.0309 127.615C69.1706 127.677 69.318 127.708 69.4655 127.708C69.7294 127.708 69.9933 127.615 70.2028 127.421C70.4201 127.227 70.5443 126.955 70.5598 126.66C70.5754 126.366 70.4745 126.086 70.2727 125.869C70.0786 125.652 69.807 125.527 69.5121 125.512C69.2171 125.496 68.9377 125.597 68.7204 125.799C68.2703 126.21 68.2392 126.909 68.6506 127.351L68.6583 127.343Z" fill="currentColor"/>
<path d="M55.6816 11.1115L61.2619 10.1647C61.3628 15.3181 57.3192 17.9414 52.5461 18.7563C47.315 19.6489 42.1382 18.2363 41.0905 12.0894C40.0505 5.95807 44.4666 2.91567 49.6977 2.03089C54.4708 1.21596 59.1509 2.35686 60.7652 7.2542L55.1849 8.20107C54.3311 6.24524 52.9108 5.25956 50.3186 5.70195C47.2218 6.22971 46.112 8.33301 46.5932 11.1503C47.0744 13.9987 48.8207 15.613 51.9174 15.0853C54.5096 14.6429 55.5264 13.2459 55.6816 11.1115Z" fill="currentColor"/>
<path d="M79.8656 15.9079L63.7998 16.7461L62.9539 0.47076L68.4643 0.183594L69.1163 12.7102L79.6716 12.1592L79.8656 15.9001V15.9079Z" fill="currentColor"/>
<path d="M100.192 0.385293L99.7733 9.854C99.4939 16.1561 95.0389 16.8236 90.4054 16.614C85.7797 16.4122 81.3946 15.3567 81.6741 9.04683L82.0932 -0.421875L87.6036 -0.181277L87.2 8.84504C87.0526 12.1746 88.3565 12.7877 90.5607 12.8886C92.7493 12.9818 94.1231 12.4851 94.2705 9.16325L94.6741 0.136933L100.185 0.377531L100.192 0.385293Z" />
<path d="M120.876 15.2013C120.263 18.8957 117.585 19.5166 112.556 18.6783L101.349 16.8079L104.026 0.734375L115.715 2.68244C119.572 3.32663 122.025 4.60723 121.481 7.89023C121.171 9.77621 119.937 10.6299 118.128 10.8938V10.9171C120.1 11.7864 121.225 13.1135 120.884 15.2013H120.876ZM115.443 13.8276C115.567 13.067 115.265 12.4771 113.844 12.2365L107.876 11.2431L107.41 14.0216L113.379 15.015C114.845 15.2634 115.303 14.6736 115.443 13.8276ZM108.854 5.36783L108.419 7.96008L114.116 8.90695C115.474 9.13203 115.916 8.5965 116.033 7.85919C116.157 7.12187 115.901 6.53978 114.543 6.3147L108.846 5.36783H108.854Z" fill="currentColor"/>
<path d="M20.4379 46.417C22.3549 49.8241 20.2439 52.8588 14.6636 55.9943C8.65635 59.3705 5.2026 58.7806 3.51842 55.8003L8.5477 52.9674C9.29278 54.2869 11.1167 53.7358 13.1035 52.6182C15.0128 51.5471 15.983 50.6235 15.5406 49.8319C15.005 48.8773 13.6624 49.7155 9.23069 51.3841C4.48857 53.1692 2.4396 53.1227 0.84079 50.2821C-0.781308 47.4026 0.576909 44.4456 6.09515 41.3411C12.1179 37.9494 15.1292 39.1136 16.5107 41.5739L11.6211 44.3214C11.0701 43.3513 9.69636 43.5608 7.84918 44.6008C5.90111 45.6952 5.04738 46.5489 5.50529 47.3638C6.05634 48.334 7.86471 47.4259 10.4337 46.3005C15.137 44.2671 18.4122 42.8235 20.4379 46.417Z" fill="currentColor"/>
<path d="M35.1842 44.7171L27.7722 47.356L27.6481 50.0724L22.2307 52.0049L23.8528 34.1231L29.86 31.981L42.4332 44.8103L37.0159 46.7428L35.1842 44.7249V44.7171ZM32.4911 41.6747L28.2301 36.9404L27.943 43.2968L32.4833 41.6825L32.4911 41.6747Z" />
<path d="M59.3839 24.9648L62.4107 40.9763L56.6674 42.0628L47.5945 33.9291L49.3952 43.4443L43.9778 44.4688L40.9509 28.4574L46.6942 27.3708L55.7749 35.5279L53.9665 25.9893L59.3839 24.9648Z" />
<path d="M83.5057 31.0809C84.0645 37.9263 79.0197 39.626 73.9361 40.0374L65.2591 40.7514L63.9319 24.5071L72.609 23.7931C77.6926 23.374 82.9469 24.251 83.5057 31.0731V31.0809ZM77.9409 31.5388C77.5994 27.3633 74.9606 27.3943 71.6931 27.6582L69.7451 27.8212L70.4591 36.5681L72.4072 36.4051C75.6824 36.1335 78.2824 35.7376 77.9409 31.5388Z" />
<path d="M112.44 26.0126L105.796 41.83L99.6414 41.3255L97.7943 31.3368L94.325 40.8909L88.1703 40.3864L84.2043 23.7075L89.9166 24.1732L92.0199 35.3494L95.885 24.6622L100.736 25.058L102.816 36.2342L106.704 25.5469L112.44 26.0126Z" />
<path d="M120.341 28.0154L117.213 44.0113L111.772 42.948L114.9 26.9443L120.341 28.0076V28.0154Z" fill="currentColor"/>
<path d="M134.606 41.9156L140.008 43.592C137.765 48.2333 132.976 48.7455 128.35 47.3174C123.282 45.7497 119.301 42.1485 121.148 36.1878C122.987 30.2505 128.304 29.5364 133.372 31.1042C137.997 32.54 141.661 35.6678 140.885 40.767L135.483 39.0905C135.607 36.9562 134.784 35.435 132.27 34.6589C129.266 33.7275 127.333 35.1013 126.48 37.841C125.626 40.5962 126.449 42.8237 129.445 43.755C131.959 44.5312 133.496 43.7395 134.598 41.9156H134.606Z" fill="currentColor"/>
<path d="M163.796 45.191L156.027 59.526L151.176 56.895L154.218 51.2836L147.055 47.403L144.012 53.0144L139.138 50.3755L146.907 36.0405L151.781 38.6793L148.941 43.9182L156.104 47.7988L158.945 42.56L163.796 45.191Z" />
</g>
<defs>
<clipPath id="clip0_210_174">
<rect width="164" height="186" fill="currentColor"/>
</clipPath>
</defs>
</symbol>
</svg>

