<svg width="0" height="0" class="hidden">
<symbol id="logos-cross" xmlns="http://www.w3.org/2000/svg" role="img" fill="currentColor" viewBox="0 0 512 512"><path d="M0 256C0 114.6 114.6 0 256 0C397.4 0 512 114.6 512 256C512 397.4 397.4 512 256 512C114.6 512 0 397.4 0 256zM175 208.1L222.1 255.1L175 303C165.7 312.4 165.7 327.6 175 336.1C184.4 346.3 199.6 346.3 208.1 336.1L255.1 289.9L303 336.1C312.4 346.3 327.6 346.3 336.1 336.1C346.3 327.6 346.3 312.4 336.1 303L289.9 255.1L336.1 208.1C346.3 199.6 346.3 184.4 336.1 175C327.6 165.7 312.4 165.7 303 175L255.1 222.1L208.1 175C199.6 165.7 184.4 165.7 175 175C165.7 184.4 165.7 199.6 175 208.1V208.1z"/></symbol>
  <symbol id="logos-menu-burger" xmlns="http://www.w3.org/2000/svg" role="img" fill="currentColor" viewBox="0 0 16 16">
    <path d="M 1 2 L 1 3 L 14 3 L 14 2 Z M 1 7 L 1 8 L 14 8 L 14 7 Z M 1 12 L 1 13 L 14 13 L 14 12 Z"/>
  </symbol>
  <symbol id="logos-instagram" xmlns:xlink="http://www.w3.org/1999/xlink" xmlns="http://www.w3.org/2000/svg" role="img" fill="currentColor" viewBox="0 0 494 494" aria-hidden="true" focusable="false" >
    <path d="M247 45.1c65.4 0 73.2.2 99 1.4 23.9 1.1 36.9 5.1 45.5 8.4 11.4 4.4 19.6 9.8 28.2 18.3 8.6 8.6 13.9 16.7 18.3 28.2 3.4 8.6 7.3 21.6 8.4 45.5 1.2 25.8 1.4 33.6 1.4 99s-.2 73.2-1.4 99c-1.1 23.9-5.1 36.9-8.4 45.5-4.4 11.4-9.8 19.6-18.3 28.2-8.6 8.6-16.7 13.9-28.2 18.3-8.6 3.4-21.6 7.3-45.5 8.4-25.8 1.2-33.6 1.4-99 1.4s-73.2-.2-99-1.4c-23.9-1.1-36.9-5.1-45.5-8.4-11.4-4.4-19.6-9.8-28.2-18.3-8.6-8.6-13.9-16.7-18.3-28.2-3.4-8.6-7.3-21.6-8.4-45.5-1.2-25.8-1.4-33.6-1.4-99s.2-73.2 1.4-99c1.1-23.9 5.1-36.9 8.4-45.5 4.4-11.4 9.8-19.6 18.3-28.2 8.6-8.6 16.7-13.9 28.2-18.3 8.6-3.4 21.6-7.3 45.5-8.4 25.8-1.1 33.6-1.4 99-1.4M247 1c-66.5 0-74.9.3-101 1.5-26.1 1.2-43.9 5.3-59.5 11.4-16.1 6.3-29.8 14.6-43.4 28.3-13.6 13.6-22 27.3-28.3 43.4-6 15.5-10.1 33.3-11.3 59.4C2.3 171.1 2 179.5 2 246s.3 74.9 1.5 101c1.2 26.1 5.3 43.9 11.4 59.5 6.3 16.1 14.6 29.8 28.3 43.4 13.6 13.6 27.3 22 43.4 28.3 15.6 6.1 33.4 10.2 59.5 11.4 26.1 1.2 34.5 1.5 101 1.5s74.9-.3 101-1.5c26.1-1.2 43.9-5.3 59.5-11.4 16.1-6.3 29.8-14.6 43.4-28.3 13.6-13.6 22-27.3 28.3-43.4 6.1-15.6 10.2-33.4 11.4-59.5 1.2-26.1 1.5-34.5 1.5-101s-.3-74.9-1.5-101c-1.2-26.1-5.3-43.9-11.4-59.5-6.3-16.1-14.6-29.8-28.3-43.4-13.6-13.6-27.3-22-43.4-28.3-15.7-6-33.5-10.1-59.6-11.3C321.9 1.3 313.5 1 247 1z"></path>
    <path d="M245 119.2c-69.5 0-125.8 56.3-125.8 125.8S175.5 370.8 245 370.8 370.8 314.5 370.8 245 314.5 119.2 245 119.2zm0 207.5c-45.1 0-81.7-36.6-81.7-81.7s36.6-81.7 81.7-81.7 81.7 36.6 81.7 81.7-36.6 81.7-81.7 81.7z"></path>
    <circle cx="375.8" cy="114.2" r="29.4" fill="#FFFFFF"></circle>
  </symbol>
    <symbol id="logos-facebook" xmlns:xlink="http://www.w3.org/1999/xlink" xmlns="http://www.w3.org/2000/svg" role="img"  fill="currentColor"  viewBox="0 0 500 1074.3" aria-hidden="true" focusable="false" >
    <path d="M108.9 212.9v148.5H0v178.2h108.9v534.7h222.8V539.6h148.5s14.9-84.2 19.8-183.2H331.7V232.6s24.8-44.6 49.5-44.6H500V-.1c-59.4 5-133.7 5-163.4 5-232.6.1-227.7 183.2-227.7 208z"></path>
  </symbol>
  <symbol id="logos-download" xmlns:xlink="http://www.w3.org/1999/xlink" xmlns="http://www.w3.org/2000/svg" viewBox="0 0 20 20">
  <path d="M13 8V2H7v6H2l8 8 8-8h-5zM0 18h20v2H0v-2z" fill="currentColor">
  </path>
  </symbol>
</svg>

