<svg width="512" height="491" viewBox="0 0 512 491" fill="none" xmlns="http://www.w3.org/2000/svg">
<path d="M373.069 93.8775C372.774 92.3404 372.518 90.8271 372.305 89.3423C372.613 90.8556 372.869 92.3689 373.069 93.8775Z" fill="#272727"/>
<path d="M373.069 93.8775C372.774 92.3404 372.518 90.8271 372.305 89.3423C372.613 90.8556 372.869 92.3689 373.069 93.8775Z" fill="#272727"/>
<path d="M372.305 89.3422C372.613 90.8555 372.869 92.3688 373.069 93.8774C372.774 92.3403 372.518 90.827 372.305 89.3422ZM407.489 92.0272C402.74 79.1096 392.274 82.8051 388.91 91.5671C388.137 91.4105 387.34 91.3062 386.533 91.254C387.126 84.6647 394.49 68.8295 396.758 64.2754C400.748 56.2724 406.612 44.1849 398.361 39.9533C385.561 33.3878 366.944 52.5247 372.305 89.3374C367.84 67.3636 352.307 45.7836 337.689 49.6831C322.066 53.853 330.568 68.9149 338.937 73.896C347.306 78.8771 356.174 86.6144 359.575 102.227L359.979 101.98C350.371 111.306 347.975 124.599 351.761 133.309C355.324 141.506 360.169 147.232 368.813 149.723C363.205 158.636 384.171 158.527 394.381 156.25C404.586 153.973 415.669 146.288 403.49 142.545C410.194 135.956 416.969 123.906 408.438 110.415C409.634 104.641 409.686 97.9998 407.489 92.0272Z" fill="#272727"/>
<path d="M258.794 432.365C267.999 452.669 251.896 457.27 251.896 457.27H185.427C185.427 457.27 163.498 452.939 162.141 423.162C160.789 393.384 169.722 389.864 176.763 389.323C177.769 389.243 178.708 389.228 179.657 389.228C180.374 389.228 181.095 389.238 181.854 389.238C187.187 389.238 194.493 388.783 215.207 381.472C230.024 376.244 244.447 371.168 256.014 365.504C261.888 372.516 267.363 379.897 272.368 387.568C272.496 387.767 272.629 387.967 272.757 388.166C257.959 394.992 237.933 401.254 209.917 407.886C213.153 407.848 215.354 409.139 215.9 412.455C216.446 415.771 214.401 418.664 211.16 419.855C211.113 419.884 211.065 419.912 211.013 419.945C211.013 419.945 211.013 419.95 211.009 419.945C206.278 421.459 201.059 423.309 195.703 425.529C195.342 425.681 195.172 426.093 195.319 426.459C195.433 426.734 195.698 426.895 195.978 426.895C196.068 426.895 196.163 426.881 196.249 426.843C203.223 423.954 209.951 421.696 215.677 420.002C220.573 418.982 226.025 418.247 231.419 418.247C242.791 418.247 253.879 421.525 258.794 432.365Z" fill="white"/>
<path d="M298.235 371.638C297.785 372.065 297.329 372.492 296.86 372.914C293.885 367.767 290.412 362.074 286.493 356.197C284.135 352.663 281.749 349.261 279.343 345.993C283.357 331.049 259.336 301.613 259.336 301.613H290.198C309.964 322.458 314.3 356.296 298.235 371.638Z" fill="white"/>
<path d="M382.407 383.275C381.477 382.801 380.352 382.563 379.052 382.563C376.391 382.563 373.174 383.583 369.953 385.03C366.731 386.482 363.495 388.356 360.805 390.068C353.157 394.926 344.802 401.605 336.637 409.376C326.939 418.608 318.717 428.257 313.489 436.554C308.294 444.794 306.614 450.7 308.479 454.154C300.774 450.975 298.032 441.008 296.428 433.447C295.123 427.322 288.818 409.893 275.524 388.963C275.349 388.683 275.168 388.403 274.988 388.123C274.827 387.867 274.661 387.611 274.495 387.355C269.783 380.068 264.228 372.388 257.756 364.631C257.552 364.385 257.343 364.138 257.135 363.891C256.926 363.645 256.717 363.398 256.508 363.151C243.452 347.772 226.761 332.193 205.805 318.905L227.392 301.613C246.939 310.594 263.986 328.483 277.246 346.339C277.46 346.633 277.683 346.932 277.901 347.231C278.115 347.52 278.323 347.81 278.537 348.099C285.236 357.288 290.92 366.396 295.413 374.19C295.574 374.47 295.731 374.745 295.887 375.021C296.049 375.3 296.21 375.585 296.371 375.86C303.289 388.043 307.108 396.643 307.108 396.643C321.607 377.264 340.286 363.939 356.877 363.934C360.108 363.934 363.253 364.442 366.276 365.5C376.5 369.086 380.718 377.801 382.407 383.275Z" fill="white"/>
<path d="M355.211 428.883C338.586 444.713 321.876 455.174 314.11 455.174C314.034 455.174 313.958 455.174 313.882 455.169C313.873 455.174 313.863 455.174 313.854 455.174H313.835C313.835 455.174 313.825 455.169 313.82 455.169H313.806C312.459 455.122 311.401 454.733 310.684 453.983C305.916 448.973 318.124 429.618 337.946 410.747C354.575 394.921 371.285 384.461 379.052 384.461C380.546 384.461 381.704 384.845 382.472 385.652C382.952 386.155 383.26 386.804 383.407 387.587C383.407 387.592 383.407 387.601 383.407 387.606C383.407 387.611 383.412 387.62 383.407 387.625C383.412 387.625 383.412 387.639 383.412 387.644C383.421 387.706 383.426 387.758 383.435 387.805C383.44 387.848 383.445 387.891 383.45 387.919C383.45 387.952 383.459 387.981 383.459 388.014C384.233 395.239 372.685 412.251 355.206 428.883H355.211Z" fill="white"/>
<path d="M373.05 93.8773C369.966 70.4566 353.299 45.5131 337.676 49.683C322.052 53.8529 330.554 68.9148 338.924 73.896C347.293 78.8771 356.16 86.6144 359.562 102.227" fill="#272727"/>
<path d="M373.05 93.8773C369.966 70.4566 353.299 45.5131 337.676 49.683C322.052 53.8529 330.554 68.9148 338.924 73.8959C347.293 78.8771 356.16 86.6144 359.562 102.227" stroke="white" stroke-width="3" stroke-linecap="round" stroke-linejoin="round"/>
<path d="M373.051 93.8774C365.417 54.1044 385.026 33.1221 398.344 39.9533C406.594 44.1849 400.73 56.2724 396.745 64.2754C394.339 69.1047 386.203 86.6239 386.478 92.3403" fill="#272727"/>
<path d="M373.051 93.8774C365.417 54.1044 385.026 33.1221 398.344 39.9533C406.594 44.1849 400.73 56.2724 396.745 64.2754C394.339 69.1047 386.203 86.6239 386.478 92.3403" stroke="white" stroke-width="3" stroke-linecap="round" stroke-linejoin="round"/>
<path d="M396.92 147.37C403.206 144.547 420.063 128.816 408.42 110.405L396.92 147.37Z" fill="#272727"/>
<path d="M396.92 147.37C403.206 144.547 420.063 128.816 408.42 110.405" stroke="white" stroke-width="3" stroke-linecap="round" stroke-linejoin="round"/>
<path d="M388.735 91.9845C391.923 82.9284 402.651 78.9055 407.476 92.0319C412.301 105.154 406.271 121.477 401.118 124.822C395.966 128.166 386.235 129.224 386.904 113.579" fill="#272727"/>
<path d="M388.735 91.9845C391.923 82.9284 402.651 78.9055 407.476 92.0319C412.301 105.154 406.271 121.477 401.118 124.822C395.966 128.166 386.235 129.224 386.904 113.579" stroke="white" stroke-width="3" stroke-linecap="round" stroke-linejoin="round"/>
<path d="M388.385 150.624C366.257 153.091 357.39 146.298 351.744 133.304C346.098 120.315 354.197 97.1364 379.489 92.0794C390.382 88.659 403.003 95.6847 399.236 106.382C395.468 117.085 365.721 110.927 367.818 112.644C376.32 114.447 382.279 116.235 384.608 129.542" fill="#272727"/>
<path d="M388.385 150.624C366.257 153.091 357.39 146.298 351.744 133.304C346.098 120.315 354.197 97.1364 379.489 92.0794C390.382 88.659 403.003 95.6847 399.236 106.382C395.468 117.085 365.721 110.927 367.818 112.644C376.32 114.447 382.279 116.235 384.608 129.542" stroke="white" stroke-width="3" stroke-linecap="round" stroke-linejoin="round"/>
<path d="M383.422 388.015C383.422 388.015 383.417 387.981 383.412 387.919L383.422 388.015Z" fill="white"/>
<path d="M383.422 388.015C383.422 388.015 383.417 387.981 383.412 387.919" stroke="#272727" stroke-width="4" stroke-miterlimit="10"/>
<path opacity="0.06" d="M304.767 455.164C304.625 455.169 304.487 455.169 304.35 455.169" stroke="#FF0000" stroke-linecap="round" stroke-linejoin="round"/>
<path d="M340.314 284.995C340.257 284.668 340.191 284.341 340.12 284.018C338.117 275.028 337.05 267.343 335.982 258.135C336.974 266.418 338.032 273.624 339.892 281.959C340.115 282.97 340.257 283.985 340.314 284.995Z" fill="white"/>
<path d="M331.242 204.425C331.859 215.483 332.556 227.973 333.742 238.453C333.69 238.031 333.643 237.599 333.59 237.167C332.324 226.417 331.598 213.438 330.957 201.991C330.511 194.021 330.118 187.029 329.629 182.166C329.667 182.427 329.7 182.693 329.733 182.963C330.317 187.902 330.744 195.558 331.242 204.425Z" fill="white"/>
<path d="M335.844 256.973C335.521 254.25 335.208 251.404 334.862 248.353C334.52 245.279 334.164 242.12 333.766 238.666C333.799 238.932 333.827 239.198 333.861 239.458C334.335 243.51 334.743 247.144 335.137 250.659C335.383 252.86 335.616 254.952 335.844 256.973Z" fill="white"/>
<path d="M321.052 163.954C320.99 164.073 320.928 164.192 320.862 164.305C320.767 164.225 320.686 164.149 320.615 164.087C320.753 164.049 320.9 164.007 321.052 163.954Z" fill="white"/>
<path d="M335.138 250.659C334.744 247.144 334.336 243.51 333.862 239.458C333.828 239.198 333.8 238.932 333.767 238.666C334.165 242.12 334.521 245.279 334.863 248.353C335.209 251.404 335.522 254.25 335.845 256.973C335.617 254.952 335.385 252.86 335.138 250.659ZM329.734 182.963C329.701 182.693 329.668 182.427 329.63 182.166C330.118 187.029 330.512 194.021 330.958 201.991C331.599 213.438 332.324 226.417 333.591 237.167C333.643 237.599 333.691 238.031 333.743 238.453C332.557 227.973 331.86 215.483 331.243 204.425C330.745 195.558 330.318 187.902 329.734 182.963ZM320.615 164.087C320.686 164.149 320.767 164.225 320.862 164.305C320.928 164.192 320.99 164.073 321.052 163.954C320.9 164.007 320.753 164.049 320.615 164.087Z" fill="white"/>
<path d="M342.14 281.456C339.621 270.147 338.587 260.901 337.159 248.097C336.765 244.582 336.357 240.948 335.882 236.897C334.62 226.218 333.899 213.277 333.263 201.863C332.765 192.997 332.338 185.34 331.755 180.401C330.886 173.02 327.176 167.674 324.496 164.685C324.221 164.377 323.955 164.092 323.708 163.836L323.533 163.66C323.751 163.599 323.979 163.518 324.211 163.432C325.188 163.053 326.28 162.432 327.333 161.421C327.404 161.355 327.475 161.288 327.546 161.217C331.702 157.023 333.107 148.93 331.721 137.156C330.891 130.13 327.765 123.019 322.674 116.586C317.289 109.784 309.982 103.934 300.959 99.1952C286.536 91.6239 261.096 83.5687 221.812 88.194L221.418 88.2415C187.885 92.1932 166.312 102.791 153.084 112.478C147.04 116.036 142.191 119.665 138.376 123C130.7 129.708 124.954 137.094 121.301 144.964C117.843 152.403 116.452 160.045 117.283 167.071C118.668 178.845 121.918 186.393 126.938 189.505C128.593 190.53 130.159 190.881 131.407 190.947C129.447 194.178 126.326 200.824 127.303 209.14C127.886 214.078 129.253 221.626 130.828 230.364C132.863 241.612 135.164 254.369 136.426 265.047C136.901 269.098 137.352 272.727 137.788 276.238C139.378 289.023 140.521 298.254 140.696 309.839C140.81 317.026 144.473 323.521 150.755 327.662C154.716 330.271 159.589 331.784 164.85 332.045C166.819 332.14 168.831 332.064 170.881 331.822C174.904 331.348 179.074 330.233 183.349 328.473C207.052 318.72 238.56 315.361 238.873 315.328L239.305 315.276C239.618 315.233 271.045 311.182 296.366 315.157C303.26 316.234 309.593 315.959 315.187 314.327C317.986 313.511 320.582 312.349 322.892 310.883C327.485 309.369 331.475 306.893 334.483 303.686C335.346 302.766 336.124 301.798 336.812 300.788C336.817 300.788 336.817 300.788 336.817 300.783C341.737 295.346 343.673 288.325 342.14 281.456ZM338.914 293.245C338.017 295.441 336.694 297.51 334.981 299.374C334.929 299.436 334.876 299.493 334.824 299.55C333.652 300.797 332.315 301.921 330.839 302.913C330.08 303.421 329.288 303.895 328.462 304.327C327.646 304.758 326.797 305.147 325.919 305.503H325.914C325.027 305.864 324.111 306.177 323.167 306.452C317.901 307.984 311.904 308.24 305.352 307.216C279.827 303.207 248.281 307.244 247.636 307.325L247.247 307.372C247.218 307.377 246.891 307.41 246.312 307.477C240.861 308.122 212.793 311.751 191.097 320.679C184.962 323.203 179.069 324.346 173.59 324.08C168.741 323.843 164.267 322.458 160.647 320.072C155.015 316.362 151.727 310.555 151.632 304.142C151.452 292.434 150.299 283.15 148.7 270.289C148.269 266.783 147.818 263.159 147.339 259.117C146.072 248.367 143.761 235.573 141.721 224.292C140.151 215.592 138.794 208.077 138.22 203.21C136.967 192.589 143.211 184.69 143.273 184.614C143.595 184.211 143.614 183.642 143.315 183.224C143.016 182.802 142.476 182.626 141.987 182.802C141.897 182.835 139.515 183.608 136.716 181.844C133.722 179.951 129.813 174.823 128.2 161.136C127.422 154.538 128.74 147.322 132.019 140.273C133.618 136.824 135.639 133.47 138.073 130.225C140.976 126.34 144.468 122.611 148.52 119.077C150.242 117.568 152.183 116.003 154.356 114.404C156.244 113.019 158.298 111.619 160.547 110.22C161.79 109.442 163.095 108.664 164.457 107.891C168.352 105.685 172.731 103.526 177.641 101.496C188.985 96.7947 203.157 92.8051 220.711 90.6514L220.782 90.6419C221.081 90.6039 221.385 90.5707 221.689 90.5328L222.082 90.4853C260.778 85.9264 285.753 93.8156 299.886 101.24C308.626 105.827 315.681 111.472 320.861 118.019C325.687 124.115 328.652 130.823 329.43 137.426C329.487 137.915 329.539 138.399 329.586 138.873C330.436 147.341 329.591 152.635 328.225 155.942C327.551 157.578 326.749 158.731 325.962 159.542C325.805 159.699 325.649 159.846 325.492 159.984C324.216 161.108 322.93 161.506 322.071 161.639C321.478 161.734 321.084 161.706 321.046 161.701C320.966 161.691 320.885 161.691 320.805 161.701C320.387 161.753 320.017 162.024 319.86 162.427C319.718 162.792 319.766 163.191 319.979 163.499C320.045 163.599 320.126 163.689 320.226 163.76C320.235 163.769 320.378 163.878 320.615 164.087C320.752 164.049 320.899 164.006 321.051 163.954C320.99 164.073 320.928 164.192 320.861 164.305C321.061 164.486 321.303 164.713 321.578 164.988C321.844 165.245 322.133 165.548 322.446 165.885C324.908 168.561 328.638 173.656 329.463 180.672C329.52 181.142 329.572 181.64 329.629 182.166C329.667 182.427 329.7 182.693 329.734 182.963C330.317 187.902 330.744 195.558 331.242 204.425C331.859 215.483 332.556 227.973 333.743 238.453C333.752 238.524 333.762 238.595 333.766 238.666C333.8 238.932 333.828 239.197 333.861 239.458C334.336 243.51 334.744 247.144 335.137 250.659C335.351 252.585 335.56 254.425 335.759 256.214C335.783 256.47 335.816 256.721 335.844 256.973C335.892 257.362 335.939 257.751 335.982 258.135C336.974 266.418 338.032 273.624 339.891 281.959C340.114 282.97 340.257 283.985 340.314 284.995C340.475 287.818 339.996 290.617 338.914 293.245Z" fill="white"/>
<path d="M340.314 284.995C340.257 284.668 340.191 284.34 340.119 284.018C338.117 275.028 337.05 267.343 335.982 258.135C335.939 257.751 335.892 257.362 335.845 256.973C335.816 256.721 335.783 256.47 335.759 256.214C335.465 253.723 335.176 251.124 334.862 248.353C334.521 245.279 334.165 242.12 333.767 238.666C333.762 238.595 333.752 238.524 333.743 238.453C333.691 238.03 333.643 237.599 333.591 237.167C332.324 226.417 331.598 213.438 330.958 201.991C330.512 194.021 330.118 187.029 329.629 182.166C329.572 181.64 329.52 181.141 329.463 180.672C328.638 173.656 324.909 168.561 322.446 165.885C322.133 165.548 321.844 165.245 321.578 164.988C321.303 164.713 321.061 164.486 320.862 164.305C320.767 164.225 320.686 164.149 320.615 164.087C320.378 163.878 320.235 163.769 320.226 163.76C320.126 163.689 320.046 163.598 319.979 163.499C319.766 163.19 319.718 162.792 319.861 162.427C320.017 162.023 320.387 161.753 320.805 161.701C320.885 161.691 320.966 161.691 321.047 161.701C321.085 161.706 321.478 161.734 322.072 161.639C322.93 161.506 324.216 161.108 325.492 159.984C325.649 159.846 325.805 159.699 325.962 159.542C326.75 158.731 327.551 157.578 328.225 155.942C329.591 152.635 330.436 147.341 329.587 138.873C329.539 138.399 329.487 137.915 329.43 137.426C328.652 130.823 325.687 124.115 320.862 118.019C315.681 111.472 308.626 105.827 299.887 101.24C285.753 93.8155 260.778 85.9263 222.083 90.4852L221.689 90.5327C221.385 90.5706 221.082 90.6038 220.783 90.6418L220.712 90.6513C203.157 92.805 188.985 96.7946 177.642 101.496C172.731 103.526 168.352 105.685 164.457 107.891C163.095 108.664 161.79 109.442 160.547 110.22C158.299 111.619 156.244 113.019 154.356 114.404C152.183 116.003 150.242 117.568 148.52 119.077C144.468 122.611 140.977 126.34 138.073 130.225C135.639 133.47 133.618 136.824 132.019 140.273C128.741 147.322 127.422 154.538 128.2 161.136C129.813 174.823 133.722 179.951 136.716 181.843C139.515 183.608 141.897 182.835 141.987 182.802C142.476 182.626 143.017 182.802 143.316 183.224C143.614 183.641 143.596 184.211 143.273 184.614C143.211 184.69 136.968 192.588 138.22 203.21C138.794 208.077 140.151 215.592 141.721 224.292C143.762 235.573 146.072 248.367 147.339 259.117C147.818 263.159 148.269 266.783 148.701 270.289C150.299 283.15 151.452 292.434 151.633 304.142C151.727 310.555 155.015 316.362 160.647 320.072C164.267 322.458 168.741 323.843 173.59 324.08C179.07 324.346 184.962 323.203 191.097 320.679C212.793 311.751 240.861 308.122 246.312 307.477C246.891 307.41 247.219 307.377 247.247 307.372L247.636 307.325C248.281 307.244 279.827 303.207 305.352 307.216C311.904 308.24 317.901 307.984 323.167 306.452C324.112 306.177 325.027 305.864 325.915 305.503H325.919C326.797 305.147 327.646 304.758 328.462 304.327C329.288 303.895 330.08 303.42 330.839 302.913C332.315 301.921 333.653 300.797 334.825 299.549C334.877 299.493 334.929 299.436 334.981 299.374C336.694 297.51 338.018 295.441 338.914 293.245C339.996 290.617 340.475 287.818 340.314 284.995ZM247.252 135.728C249.776 132.317 253.624 130.064 257.822 129.532L257.96 129.518C262.168 129.058 266.434 130.353 269.679 133.086C270.167 133.494 270.229 134.219 269.821 134.708C269.408 135.197 268.682 135.258 268.194 134.85C265.376 132.478 261.817 131.401 258.159 131.814C254.511 132.265 251.299 134.139 249.107 137.099C248.912 137.365 248.623 137.521 248.315 137.559C248.035 137.592 247.741 137.521 247.494 137.341C246.981 136.961 246.877 136.24 247.252 135.728ZM230.049 203.575C232.112 200.966 235.068 199.311 238.375 198.922C241.682 198.533 244.941 199.453 247.555 201.516C250.17 203.58 251.825 206.531 252.215 209.842C252.604 213.149 251.683 216.408 249.619 219.022C247.555 221.631 244.6 223.286 241.293 223.675C237.986 224.064 234.727 223.144 232.112 221.08C231.614 220.687 231.529 219.961 231.923 219.463C232.316 218.965 233.042 218.879 233.54 219.273C235.671 220.952 238.328 221.702 241.022 221.384C243.717 221.066 246.127 219.719 247.807 217.589C249.486 215.459 250.241 212.807 249.923 210.112C249.605 207.418 248.258 205.008 246.127 203.324C243.997 201.645 241.34 200.895 238.645 201.213C235.951 201.531 233.54 202.878 231.861 205.008C231.467 205.506 230.741 205.592 230.243 205.198C229.74 204.804 229.655 204.078 230.049 203.575ZM186.276 142.91C188.796 139.504 192.643 137.251 196.847 136.719L196.98 136.7C201.188 136.245 205.453 137.54 208.699 140.268C209.187 140.681 209.249 141.406 208.841 141.895C208.642 142.127 208.376 142.265 208.091 142.298C207.788 142.336 207.47 142.251 207.214 142.037C204.395 139.665 200.837 138.589 197.184 139.001C193.531 139.452 190.319 141.326 188.131 144.286C187.752 144.798 187.031 144.903 186.518 144.528C186.006 144.148 185.897 143.423 186.276 142.91ZM225.551 260.868L225.537 260.74V260.73C223.715 246.522 219.407 236.422 215.844 230.165C212.822 232.855 209.05 234.553 204.951 235.037C199.656 235.663 194.432 234.188 190.252 230.886C189.749 230.492 189.664 229.762 190.062 229.264C190.257 229.017 190.537 228.87 190.831 228.837C191.125 228.799 191.429 228.879 191.68 229.074C195.381 231.991 199.997 233.301 204.68 232.746C208.461 232.3 211.915 230.687 214.643 228.139C215.023 227.788 215.384 227.414 215.73 227.025C215.915 226.825 216.095 226.612 216.271 226.398C216.337 226.318 216.404 226.232 216.47 226.152C216.489 226.128 216.503 226.104 216.522 226.085C216.85 225.663 217.158 225.236 217.438 224.795C217.575 224.591 217.704 224.377 217.822 224.169C222.234 216.692 220.55 206.891 213.547 201.365C213.125 201.033 212.693 200.724 212.252 200.435C211.711 200.079 211.151 199.757 210.582 199.472C209.885 199.116 209.173 198.817 208.447 198.561C204.372 197.143 199.921 197.275 195.974 198.874C195.604 199.021 195.234 199.187 194.873 199.363C194.499 199.543 194.138 199.738 193.777 199.942C191.899 201.028 190.186 202.48 188.758 204.287C188.563 204.538 188.279 204.685 187.989 204.719C187.695 204.752 187.387 204.676 187.14 204.477C186.637 204.083 186.552 203.357 186.95 202.859C188.748 200.577 190.973 198.751 193.488 197.465L191.865 183.698C191.813 183.29 191.989 182.887 192.321 182.64L200.59 176.469L191.111 172.394C190.736 172.228 190.47 171.877 190.423 171.469L188.739 157.189C188.065 151.473 192.169 146.269 197.891 145.595C203.613 144.922 208.812 149.025 209.486 154.746L214.7 198.988C214.715 199.107 214.71 199.225 214.691 199.334C214.786 199.41 214.881 199.481 214.975 199.557C222.856 205.777 224.782 216.782 219.881 225.227C226.466 228.362 234.247 229.771 241.948 229.211C251.213 227.698 259.649 223.462 265.712 217.276C265.765 217.224 265.817 217.167 265.874 217.11C267.477 215.449 268.905 213.656 270.12 211.768C270.13 211.749 270.139 211.73 270.153 211.706C270.281 211.517 270.4 211.327 270.519 211.132C270.846 210.587 271.558 210.416 272.103 210.743C272.644 211.071 272.82 211.778 272.492 212.323C272.056 213.049 271.61 213.855 271.173 214.719C271.169 214.728 271.169 214.738 271.164 214.743C271.164 214.752 271.154 214.761 271.15 214.766C270.31 216.436 269.517 218.272 268.806 220.226C268.716 220.487 268.621 220.748 268.526 221.019C265.969 228.358 263.468 240.274 265.29 256.522C265.304 256.66 265.319 256.793 265.338 256.93L265.357 257.101C265.603 259.212 265.58 261.257 265.29 263.178C264.612 267.647 262.467 271.532 259.089 274.416C256.067 276.992 252.101 278.681 247.926 279.174L247.76 279.193C243.57 279.687 239.319 278.966 235.785 277.163C231.828 275.147 228.839 271.864 227.14 267.67C226.41 265.872 225.911 263.889 225.665 261.778C225.627 261.47 225.589 261.166 225.551 260.868ZM198.066 207.446C199.143 207.318 200.125 208.092 200.249 209.168C200.377 210.241 199.604 211.223 198.527 211.346C197.45 211.474 196.472 210.701 196.344 209.629C196.221 208.552 196.989 207.574 198.066 207.446ZM203.684 221.389C204.756 221.261 205.738 222.034 205.866 223.106C205.994 224.183 205.216 225.16 204.144 225.288C203.067 225.416 202.09 224.643 201.962 223.566C201.833 222.494 202.607 221.512 203.684 221.389ZM212.983 209.553C214.055 209.429 215.037 210.198 215.165 211.275C215.289 212.352 214.515 213.329 213.443 213.457C212.366 213.585 211.384 212.812 211.261 211.735C211.132 210.658 211.906 209.681 212.983 209.553ZM262.818 206.697C263.16 206.298 263.639 206.061 264.166 206.028C264.688 205.99 265.195 206.156 265.589 206.502C265.988 206.849 266.225 207.328 266.263 207.85C266.296 208.371 266.13 208.879 265.784 209.278C265.461 209.648 265.02 209.88 264.536 209.937L264.436 209.946C264.175 209.965 263.919 209.932 263.677 209.852C263.435 209.771 263.207 209.643 263.013 209.467C262.192 208.756 262.107 207.513 262.818 206.697ZM269.864 279.008C266.045 284.948 258.344 289.127 249.254 290.199C249.178 290.209 249.102 290.213 249.022 290.223C239.941 291.295 231.481 289.027 226.381 284.146C225.921 283.705 225.907 282.974 226.348 282.514C226.789 282.054 227.52 282.04 227.98 282.481C232.587 286.888 240.344 288.923 248.761 287.932C248.832 287.927 248.908 287.917 248.979 287.908C257.395 286.916 264.474 283.126 267.923 277.761C268.27 277.225 268.981 277.068 269.517 277.414C270.054 277.761 270.21 278.472 269.864 279.008ZM272.037 227.134C271.406 227.205 270.832 226.754 270.756 226.123C270.704 225.677 270.908 225.269 271.254 225.032C271.401 224.932 271.577 224.861 271.766 224.842C281.431 223.704 288.367 214.913 287.228 205.25C286.417 198.376 281.734 192.878 275.619 190.696C275.225 190.549 274.822 190.42 274.414 190.307C274.02 190.198 273.621 190.103 273.218 190.022C271.425 189.657 269.546 189.562 267.634 189.79C264.939 190.107 262.391 191.037 260.166 192.47C259.516 192.887 258.89 193.347 258.302 193.85C257.808 194.263 257.339 194.704 256.893 195.179C255.835 196.289 254.914 197.551 254.169 198.931C254.074 199.097 253.951 199.235 253.804 199.334C253.458 199.571 252.997 199.609 252.604 199.396C252.044 199.092 251.835 198.39 252.139 197.83C252.921 196.384 253.87 195.055 254.957 193.869L252.912 176.507C252.865 176.099 253.035 175.691 253.367 175.449L261.637 169.277L254.938 166.393L252.158 165.197C251.778 165.036 251.517 164.685 251.47 164.272L249.785 149.998C249.112 144.276 253.216 139.077 258.937 138.403C264.659 137.73 269.859 141.833 270.533 147.55L275.325 188.167C282.759 190.364 288.557 196.811 289.52 204.98C290.806 215.905 282.963 225.843 272.037 227.134ZM278.238 200.805C277.901 201.189 277.455 201.412 276.985 201.464C276.454 201.526 275.899 201.374 275.462 200.999C274.646 200.288 274.556 199.045 275.268 198.224C275.614 197.83 276.089 197.593 276.615 197.555C277.142 197.517 277.645 197.688 278.043 198.03C278.437 198.376 278.679 198.855 278.712 199.377C278.75 199.899 278.584 200.406 278.238 200.805ZM279.125 213.039C279.519 213.386 279.761 213.865 279.794 214.387C279.832 214.909 279.661 215.416 279.319 215.81C278.983 216.199 278.537 216.422 278.067 216.474C277.796 216.507 277.531 216.484 277.27 216.408C277.009 216.327 276.762 216.199 276.544 216.004C275.728 215.298 275.638 214.055 276.349 213.234C276.696 212.84 277.175 212.603 277.697 212.565C278.223 212.527 278.726 212.698 279.125 213.039Z" fill="#272727"/>
<path d="M272.037 227.134C271.406 227.205 270.832 226.754 270.756 226.123C270.703 225.677 270.907 225.269 271.254 225.032C271.401 224.932 271.576 224.861 271.766 224.842C281.431 223.704 288.367 214.913 287.228 205.25C286.417 198.376 281.734 192.878 275.619 190.696C275.225 190.549 274.822 190.42 274.414 190.307C274.02 190.197 273.621 190.103 273.218 190.022C271.425 189.657 269.546 189.562 267.634 189.79C264.939 190.107 262.391 191.037 260.166 192.47C259.516 192.887 258.89 193.347 258.302 193.85C257.808 194.263 257.338 194.704 256.892 195.179C255.834 196.289 254.914 197.551 254.169 198.931C254.074 199.097 253.951 199.235 253.804 199.334C253.457 199.571 252.997 199.609 252.603 199.396C252.044 199.092 251.835 198.39 252.139 197.83C252.921 196.384 253.87 195.055 254.957 193.869L252.912 176.507C252.864 176.099 253.035 175.691 253.367 175.449L261.637 169.277L254.938 166.393L252.158 165.197C251.778 165.036 251.517 164.685 251.47 164.272L249.785 149.998C249.112 144.276 253.216 139.077 258.937 138.403C264.659 137.73 269.859 141.833 270.533 147.55L275.325 188.167C282.759 190.364 288.557 196.81 289.52 204.98C290.806 215.905 282.963 225.843 272.037 227.134Z" fill="white"/>
<path d="M272.103 210.743C271.558 210.416 270.846 210.587 270.519 211.132C270.4 211.327 270.281 211.517 270.153 211.706C270.139 211.73 270.13 211.749 270.12 211.768C268.906 213.656 267.477 215.449 265.874 217.11C265.817 217.167 265.765 217.224 265.712 217.276C259.649 223.462 251.214 227.698 241.948 229.212C234.247 229.771 226.467 228.362 219.881 225.227C224.782 216.782 222.856 205.777 214.976 199.557C214.881 199.481 214.786 199.41 214.691 199.339C214.71 199.225 214.715 199.107 214.7 198.988L209.486 154.746C208.813 149.025 203.613 144.922 197.891 145.595C192.169 146.269 188.065 151.473 188.739 157.189L190.423 171.469C190.471 171.877 190.736 172.228 191.111 172.394L200.59 176.469L192.321 182.641C191.989 182.887 191.813 183.29 191.865 183.698L193.488 197.465C190.973 198.751 188.748 200.577 186.95 202.859C186.552 203.357 186.637 204.083 187.14 204.477C187.387 204.676 187.695 204.752 187.989 204.719C188.279 204.686 188.563 204.538 188.758 204.287C190.186 202.48 191.899 201.028 193.777 199.942C194.138 199.738 194.499 199.543 194.873 199.363C195.234 199.187 195.604 199.021 195.974 198.874C199.921 197.276 204.372 197.143 208.447 198.561C209.173 198.817 209.885 199.116 210.582 199.472C211.152 199.757 211.711 200.079 212.252 200.435C212.693 200.724 213.125 201.033 213.547 201.365C220.55 206.891 222.235 216.692 217.822 224.169C217.704 224.377 217.576 224.591 217.438 224.795C217.158 225.236 216.85 225.663 216.522 226.085C216.503 226.104 216.489 226.128 216.47 226.152C216.404 226.232 216.337 226.318 216.271 226.398C216.095 226.612 215.915 226.825 215.73 227.025C215.384 227.414 215.023 227.788 214.643 228.139C211.915 230.687 208.461 232.3 204.68 232.746C199.997 233.301 195.381 231.991 191.68 229.074C191.429 228.879 191.125 228.799 190.831 228.837C190.537 228.87 190.257 229.017 190.063 229.264C189.664 229.762 189.749 230.492 190.252 230.886C194.432 234.188 199.656 235.663 204.951 235.037C209.05 234.553 212.822 232.855 215.844 230.165C219.407 236.422 223.715 246.522 225.537 260.73V260.74L225.551 260.868C225.589 261.167 225.627 261.47 225.665 261.778C225.911 263.89 226.41 265.872 227.14 267.67C228.839 271.864 231.828 275.147 235.785 277.163C239.319 278.966 243.57 279.687 247.76 279.193L247.926 279.174C252.101 278.681 256.067 276.992 259.089 274.416C262.467 271.532 264.612 267.647 265.29 263.178C265.58 261.257 265.603 259.212 265.357 257.101L265.338 256.93C265.319 256.793 265.304 256.66 265.29 256.522C263.468 240.274 265.969 228.358 268.526 221.019C268.621 220.748 268.716 220.487 268.806 220.227C269.518 218.272 270.31 216.436 271.15 214.766C271.154 214.762 271.159 214.752 271.164 214.743C271.169 214.738 271.169 214.728 271.173 214.719C271.61 213.855 272.056 213.049 272.492 212.323C272.82 211.778 272.644 211.071 272.103 210.743ZM263.008 262.832C261.613 272.035 253.875 276.148 247.641 276.883L247.503 276.902C241.26 277.637 232.777 275.436 229.28 266.807C228.625 265.199 228.179 263.415 227.956 261.508V261.489C233.512 260.071 239.428 261.314 243.959 264.886C245.738 266.29 247.223 267.979 248.376 269.905C248.614 270.308 249.064 270.512 249.501 270.46C249.657 270.441 249.814 270.393 249.956 270.303C250.507 269.976 250.682 269.269 250.355 268.724C249.226 266.826 247.802 265.137 246.127 263.686C250.416 259.022 256.883 256.854 263.132 258.021C263.283 259.696 263.241 261.309 263.008 262.832Z" fill="white"/>
<path d="M263.009 262.832C261.614 272.035 253.876 276.148 247.642 276.883L247.504 276.902C241.26 277.637 232.777 275.436 229.281 266.807C228.626 265.199 228.18 263.415 227.957 261.508V261.489C233.513 260.071 239.429 261.314 243.96 264.886C245.739 266.29 247.224 267.979 248.377 269.905C248.614 270.308 249.065 270.512 249.502 270.46C249.658 270.441 249.815 270.393 249.957 270.303C250.507 269.976 250.683 269.269 250.355 268.724C249.226 266.826 247.803 265.137 246.128 263.686C250.417 259.022 256.884 256.854 263.132 258.021C263.284 259.696 263.241 261.309 263.009 262.832Z" fill="#272727"/>
<path d="M269.865 279.008C266.046 284.948 258.345 289.127 249.255 290.199C249.179 290.209 249.103 290.214 249.023 290.223C239.942 291.295 231.482 289.028 226.382 284.146C225.922 283.705 225.908 282.974 226.349 282.514C226.79 282.054 227.521 282.04 227.981 282.481C232.588 286.888 240.345 288.923 248.762 287.932C248.833 287.927 248.909 287.917 248.98 287.908C257.397 286.917 264.475 283.126 267.924 277.761C268.271 277.225 268.982 277.068 269.519 277.414C270.055 277.761 270.211 278.472 269.865 279.008Z" fill="white"/>
<path d="M208.842 141.895C208.642 142.127 208.377 142.265 208.092 142.298C207.788 142.336 207.471 142.251 207.214 142.037C204.396 139.665 200.838 138.588 197.185 139.001C193.531 139.452 190.319 141.326 188.132 144.286C187.753 144.798 187.032 144.903 186.519 144.528C186.007 144.148 185.898 143.423 186.277 142.91C188.796 139.504 192.644 137.251 196.848 136.719L196.981 136.7C201.189 136.245 205.454 137.54 208.699 140.268C209.188 140.681 209.25 141.406 208.842 141.895Z" fill="white"/>
<path d="M269.821 134.708C269.408 135.197 268.682 135.258 268.194 134.85C265.375 132.478 261.817 131.402 258.159 131.814C254.511 132.265 251.299 134.139 249.107 137.099C248.912 137.365 248.623 137.521 248.314 137.559C248.034 137.592 247.74 137.521 247.494 137.341C246.981 136.961 246.877 136.24 247.252 135.728C249.776 132.317 253.623 130.064 257.822 129.532L257.96 129.518C262.168 129.058 266.433 130.353 269.679 133.086C270.167 133.494 270.229 134.219 269.821 134.708Z" fill="white"/>
<path d="M249.621 219.022C247.557 221.631 244.601 223.286 241.294 223.675C237.987 224.064 234.728 223.144 232.114 221.081C231.616 220.687 231.53 219.961 231.924 219.463C232.318 218.965 233.044 218.879 233.542 219.273C235.672 220.952 238.329 221.702 241.024 221.384C243.719 221.066 246.129 219.719 247.808 217.589C249.488 215.459 250.242 212.807 249.924 210.113C249.606 207.418 248.259 205.008 246.129 203.324C243.999 201.645 241.342 200.895 238.647 201.213C235.952 201.531 233.542 202.878 231.862 205.008C231.468 205.506 230.743 205.592 230.244 205.198C229.742 204.804 229.656 204.078 230.05 203.575C232.114 200.966 235.069 199.311 238.376 198.922C241.683 198.533 244.943 199.453 247.557 201.517C250.171 203.58 251.827 206.531 252.216 209.842C252.605 213.149 251.684 216.408 249.621 219.022Z" fill="white"/>
<path d="M198.527 211.346C197.45 211.474 196.473 210.701 196.345 209.629C196.222 208.552 196.99 207.575 198.067 207.446C199.144 207.318 200.126 208.092 200.25 209.169C200.378 210.241 199.604 211.223 198.527 211.346Z" fill="white"/>
<path d="M213.444 213.457C212.367 213.585 211.385 212.812 211.262 211.735C211.134 210.658 211.907 209.681 212.984 209.553C214.056 209.429 215.038 210.198 215.167 211.275C215.29 212.352 214.517 213.329 213.444 213.457Z" fill="white"/>
<path d="M204.146 225.288C203.069 225.416 202.091 224.643 201.963 223.566C201.835 222.494 202.608 221.512 203.685 221.389C204.758 221.261 205.74 222.034 205.868 223.106C205.996 224.183 205.218 225.16 204.146 225.288Z" fill="white"/>
<path d="M266.263 207.85C266.296 208.372 266.13 208.879 265.783 209.278C265.461 209.648 265.02 209.88 264.536 209.937L264.436 209.947C264.175 209.965 263.919 209.932 263.677 209.852C263.435 209.771 263.207 209.643 263.013 209.467C262.192 208.756 262.106 207.513 262.818 206.697C263.16 206.298 263.639 206.061 264.166 206.028C264.687 205.99 265.195 206.156 265.589 206.502C265.987 206.849 266.225 207.328 266.263 207.85Z" fill="white"/>
<path d="M278.712 199.377C278.75 199.899 278.584 200.407 278.238 200.805C277.901 201.189 277.455 201.412 276.985 201.464C276.454 201.526 275.899 201.374 275.462 201C274.646 200.288 274.556 199.045 275.268 198.224C275.614 197.831 276.088 197.593 276.615 197.555C277.142 197.518 277.645 197.688 278.043 198.03C278.437 198.376 278.679 198.855 278.712 199.377Z" fill="white"/>
<path d="M279.794 214.387C279.832 214.909 279.661 215.416 279.32 215.81C278.983 216.199 278.537 216.422 278.067 216.474C277.797 216.507 277.531 216.484 277.27 216.408C277.009 216.327 276.763 216.199 276.544 216.005C275.728 215.298 275.638 214.055 276.35 213.234C276.696 212.84 277.175 212.603 277.697 212.565C278.224 212.527 278.727 212.698 279.125 213.04C279.519 213.386 279.761 213.865 279.794 214.387Z" fill="white"/>
<path d="M368.799 149.723C363.191 158.636 384.152 158.527 394.362 156.25C404.572 153.973 415.65 146.283 403.471 142.545" stroke="white" stroke-width="3" stroke-linecap="round" stroke-linejoin="round"/>
<path d="M332.152 197.423C362.023 198.547 384.45 191.654 373.851 156.876C373.851 156.876 390.945 160.088 404.22 152.365C427.174 210.108 365.971 227.262 333.291 222.053L332.152 197.427V197.423Z" fill="white"/>
<path d="M144.089 403.498C191.076 403.498 229.166 365.412 229.166 318.43C229.166 271.449 191.076 233.363 144.089 233.363C97.1021 233.363 59.0117 271.449 59.0117 318.43C59.0117 365.412 97.1021 403.498 144.089 403.498Z" fill="#272727" stroke="white" stroke-width="3" stroke-miterlimit="10"/>
<path d="M144.089 399.727C188.992 399.727 225.394 363.329 225.394 318.43C225.394 273.532 188.992 237.134 144.089 237.134C99.1848 237.134 62.7832 273.532 62.7832 318.43C62.7832 363.329 99.1848 399.727 144.089 399.727Z" fill="white"/>
<path d="M144.088 391.506C103.722 391.506 71 358.787 71 318.426" stroke="#272727" stroke-width="3" stroke-miterlimit="10" stroke-linecap="round"/>
<path d="M144.088 245.35C184.454 245.35 217.176 278.069 217.176 318.43" stroke="#272727" stroke-width="3" stroke-miterlimit="10" stroke-linecap="round"/>
<path d="M144.089 385.732C106.916 385.732 76.7793 355.599 76.7793 318.43" stroke="#272727" stroke-width="3" stroke-miterlimit="10" stroke-linecap="round"/>
<path d="M144.088 251.124C181.261 251.124 211.397 281.257 211.397 318.426" stroke="#272727" stroke-width="3" stroke-miterlimit="10" stroke-linecap="round"/>
<path d="M144.088 379.181C110.531 379.181 83.3262 351.979 83.3262 318.426" stroke="#272727" stroke-width="3" stroke-miterlimit="10" stroke-linecap="round"/>
<path d="M144.088 257.675C177.645 257.675 204.85 284.877 204.85 318.43" stroke="#272727" stroke-width="3" stroke-miterlimit="10" stroke-linecap="round"/>
<path d="M144.088 346.035C159.336 346.035 171.696 333.676 171.696 318.43C171.696 303.185 159.336 290.825 144.088 290.825C128.841 290.825 116.48 303.185 116.48 318.43C116.48 333.676 128.841 346.035 144.088 346.035Z" fill="#272727"/>
<path d="M144.088 320.741C145.364 320.741 146.398 319.706 146.398 318.43C146.398 317.154 145.364 316.12 144.088 316.12C142.812 316.12 141.777 317.154 141.777 318.43C141.777 319.706 142.812 320.741 144.088 320.741Z" fill="white"/>
<path d="M134.552 336.287C131.734 343.483 124.931 346.049 117.966 344.707C111.808 359.152 99.3963 363.047 90.0307 356.785C81.339 359.978 62.0434 364.01 51.3874 334.185C40.7314 304.355 66.5695 289.298 66.5695 289.298C59.6854 285.242 64.7334 275.968 81.3911 273.093C89.6654 271.66 94.1489 272.471 96.5449 273.975C100.198 276.267 98.9882 280.175 98.9835 280.209C110.019 278.249 129.391 282.424 124.352 306.936C137.077 308.753 139.553 323.525 134.552 336.287Z" fill="#272727" stroke="white" stroke-width="3" stroke-linecap="round" stroke-linejoin="round"/>
<path d="M113.814 341.079V341.073" stroke="white" stroke-width="3" stroke-linecap="round" stroke-linejoin="round"/>
<path d="M90.0303 356.785C90.0303 356.785 77.747 349.688 73.9941 327.729L90.0303 356.785Z" fill="#272727"/>
<path d="M90.0303 356.785C90.0303 356.785 77.747 349.688 73.9941 327.729" stroke="white" stroke-width="3" stroke-linecap="round" stroke-linejoin="round"/>
<path d="M117.965 344.707C109.776 343.123 97.2129 332.51 94.8027 321.301L117.965 344.707Z" fill="#272727"/>
<path d="M117.965 344.707C109.776 343.123 97.2129 332.51 94.8027 321.301" stroke="white" stroke-width="3" stroke-linecap="round" stroke-linejoin="round"/>
<path d="M112.838 300.2C109.678 307.429 111.69 310.916 113.953 313.625L112.838 300.2Z" fill="#272727"/>
<path d="M112.838 300.2C109.678 307.429 111.69 310.916 113.953 313.625" stroke="white" stroke-width="3" stroke-linecap="round" stroke-linejoin="round"/>
<path d="M111.342 307.562C115.318 306.466 121.466 306.518 124.356 306.936L111.342 307.562Z" fill="#272727"/>
<path d="M111.342 307.562C115.318 306.466 121.466 306.518 124.356 306.936" stroke="white" stroke-width="3" stroke-linecap="round" stroke-linejoin="round"/>
<path d="M66.5703 289.298C66.5703 289.298 71.4001 285.906 79.2759 283.387L66.5703 289.298Z" fill="#272727"/>
<path d="M66.5703 289.298C66.5703 289.298 71.4001 285.906 79.2759 283.387" stroke="white" stroke-width="3" stroke-linecap="round" stroke-linejoin="round"/>
<path d="M132.086 234.368C92.906 222.589 93.0863 255.038 95.2497 273.321C95.2687 273.468 90.5812 270.982 79.911 273.373C69.2408 275.764 67.0726 279.241 67.0821 278.814C67.8364 229.615 90.0356 194.771 130.857 212.954C130.857 212.954 135.615 235.431 132.086 234.368Z" fill="white"/>
</svg>
