<svg width="143" height="9" viewBox="0 0 143 9" fill="currentColor" xmlns="http://www.w3.org/2000/svg">
<path d="M0.320305 1.54664C0.76114 0.947959 1.6204 0.469151 2.70915 0.215494C3.7979 -0.038163 5.02701 -0.0459017 6.12623 0.193979L21.8201 3.61456C25.0139 4.31036 28.5767 4.31036 31.7706 3.61456L40.8278 1.63909C46.1518 0.478994 52.0909 0.478994 57.4149 1.63909L66.4811 3.61456C69.6749 4.31036 73.2377 4.31036 76.4315 3.61456L85.4888 1.63909C90.8127 0.478994 96.7519 0.478994 102.076 1.63909L111.142 3.61456C114.336 4.31036 117.899 4.31036 121.093 3.61456L136.786 0.193979C137.333 0.0673015 137.921 0.00136108 138.515 2.08492e-05C139.11 -0.00131938 139.699 0.0619676 140.247 0.186174C140.796 0.310381 141.294 0.493008 141.712 0.723355C142.129 0.953702 142.458 1.22713 142.679 1.52763C142.9 1.82813 143.009 2.14965 142.999 2.47334C142.989 2.79704 142.861 3.11641 142.622 3.41273C142.382 3.70905 142.037 3.97636 141.605 4.19901C141.174 4.42166 140.665 4.59516 140.109 4.70934L124.406 8.12993C119.082 9.29002 113.143 9.29002 107.819 8.12993L98.762 6.15446C95.5682 5.45866 92.0054 5.45866 88.8115 6.15446L79.7454 8.12993C74.4214 9.29002 68.4822 9.29002 63.1583 8.12993L54.101 6.15446C50.9072 5.45866 47.3444 5.45866 44.1506 6.15446L35.0844 8.12993C29.7604 9.29002 23.8213 9.29002 18.4973 8.12993L2.80345 4.70934C1.70442 4.46921 0.82545 4.00114 0.3598 3.40805C-0.10585 2.81497 -0.120056 2.14543 0.320305 1.54664Z" fill="white"/>
</svg>
