<svg width="73" height="75" viewBox="0 0 73 75" fill="none" xmlns="http://www.w3.org/2000/svg">
<path d="M72.8977 71.9635C72.9189 71.5772 72.9136 71.1909 72.8713 70.794C72.5802 67.9576 72.485 65.4705 72.4585 62.7559C72.4638 65.7986 72.5485 68.4815 72.866 71.5878C72.8766 71.7148 72.8871 71.8418 72.8977 71.9635Z" fill="white"/>
<path d="M67.0133 25.9572L67.0004 25.9659C67.9973 24.6389 68.5 22.4112 68.5 19.3134C68.5 17.0901 67.7953 14.7581 66.4591 12.5653C65.0497 10.2463 63.0088 8.14915 60.4007 6.33919C56.2328 3.45023 48.6921 0 36.4206 0H36.3003C32.1239 0 28.5061 0.400279 25.3695 1.04421L25.3909 1.0355C18.151 2.21893 12.6554 5.41681 9.32548 7.88374C8.01068 8.80612 6.84627 9.80682 5.83224 10.8684C5.7549 10.9467 5.70334 10.999 5.67756 11.0294C5.66896 11.0338 5.66466 11.0425 5.66037 11.0468H5.65607C4.41002 12.2433 3.36592 13.5224 2.54095 14.8843C1.20466 17.0771 0.5 19.4092 0.5 21.6324C0.5 25.3568 1.22615 27.8324 2.66125 28.9854C3.1296 29.3639 3.60224 29.5336 3.98464 29.5989C3.26279 30.5343 2.05971 32.4922 2.05971 35.1244C2.05971 36.6864 2.2058 39.0924 2.37337 41.877C2.5925 45.4577 2.83742 49.5214 2.83742 52.902C2.83742 54.1812 2.84601 55.3298 2.85031 56.4393C2.87609 60.4856 2.89328 63.4093 2.52805 67.0292C2.30033 69.2786 3.19405 71.4367 4.98149 72.9594C6.10723 73.921 7.55093 74.5693 9.1622 74.8434C9.76374 74.9478 10.3868 75 11.027 75C12.2859 75 13.6093 74.8042 14.9886 74.4126C22.6453 72.2416 32.4719 72.3503 32.5708 72.3503H32.704C32.8028 72.3503 42.6294 72.2416 50.2862 74.4126C51.7428 74.8216 53.1349 75.0174 54.454 74.9913C54.5485 74.9913 54.6388 74.9913 54.729 74.9869C62.6135 74.8608 65.2989 69.3047 65.4149 69.0524C66.2485 67.7645 66.6266 66.2591 66.4719 64.7102C66.1024 61.0903 66.1239 58.1665 66.1454 54.1203C66.154 53.0108 66.1583 51.8622 66.1583 50.583C66.1583 47.2024 66.4075 43.1387 66.6266 39.5536C66.7942 36.7734 66.9403 34.3674 66.9403 32.8054C66.9403 30.5038 66.0208 28.7243 65.3075 27.6845C66.2399 27.1145 67.0133 25.9572 67.0133 25.9572V25.9572ZM65.7501 26.2052C65.4794 26.3966 65.2173 26.4967 64.9939 26.5489C64.8607 26.5794 64.7404 26.5924 64.6372 26.5968C64.4525 26.6055 64.3322 26.5794 64.3193 26.5794C64.2978 26.5707 64.272 26.5707 64.2462 26.5707C64.1173 26.5707 63.9927 26.6403 63.9283 26.7621C63.8724 26.8709 63.8724 26.997 63.9283 27.1015C63.9412 27.1319 63.967 27.1624 63.9927 27.1928C63.997 27.1928 64.0357 27.232 64.1001 27.3059C64.1216 27.3277 64.1431 27.3538 64.1689 27.3843C64.1732 27.3886 64.1775 27.393 64.1818 27.4017C64.2333 27.4626 64.2935 27.5365 64.3665 27.6236C64.4353 27.7149 64.5169 27.8193 64.5986 27.9368C64.6158 27.9629 64.6372 27.989 64.6544 28.0151C64.8048 28.2283 64.9681 28.485 65.1314 28.7765C65.17 28.8462 65.2087 28.9158 65.2474 28.9897C65.2989 29.0898 65.3505 29.1899 65.4021 29.2986C65.445 29.3813 65.4837 29.4683 65.5224 29.5597C65.6126 29.7642 65.6985 29.9774 65.7759 30.2036C65.8145 30.3124 65.8489 30.4212 65.8833 30.5343C65.9177 30.6474 65.9477 30.7605 65.9778 30.878C66.068 31.2304 66.1368 31.6046 66.1798 31.9962C66.2055 32.2572 66.2227 32.527 66.2227 32.8054V33.2753C66.197 34.8112 66.0638 37.0084 65.9091 39.5101C65.6942 43.1039 65.445 47.1806 65.445 50.583C65.445 51.8622 65.4364 53.0064 65.4321 54.1159C65.4278 54.7903 65.4235 55.4342 65.4235 56.0564C65.4235 56.0303 65.4235 55.9998 65.4235 55.9694C65.4235 55.9998 65.4235 56.0303 65.4235 56.0564C65.4192 56.4523 65.4192 56.8352 65.4192 57.2094C65.4192 57.5357 65.4192 57.8576 65.4235 58.1752C65.445 60.4072 65.5224 62.4521 65.7587 64.7842C65.7931 65.1105 65.7974 65.4281 65.7802 65.7457C65.7759 65.8371 65.7673 65.9285 65.7544 66.0198C65.7372 66.146 65.72 66.2678 65.6985 66.3897C65.5868 67.0466 65.372 67.6819 65.0497 68.2692C64.6931 68.9219 64.2119 69.5179 63.6146 70.0357C63.5974 70.0531 63.576 70.0705 63.5588 70.0879C63.5029 70.1357 63.4513 70.1793 63.3955 70.2228C63.3396 70.2663 63.2881 70.3098 63.2279 70.3489C62.9143 70.5882 62.5705 70.8014 62.2096 70.9885C61.9604 71.119 61.6983 71.2365 61.4276 71.3453C61.1569 71.4453 60.8819 71.5367 60.5983 71.615C60.3147 71.6934 60.0183 71.7586 59.7175 71.8108C58.0418 72.098 56.1856 71.9544 54.2005 71.3931C46.4879 69.2047 36.6226 69.3047 36.4206 69.3091H36.3003C36.3003 69.3091 36.1886 69.3047 36.0081 69.3047C34.3066 69.3047 25.5284 69.4092 18.5205 71.3931C16.5354 71.9544 14.6792 72.098 13.0035 71.8108C11.5168 71.5585 10.1891 70.9624 9.1622 70.0879C7.55952 68.7217 6.76033 66.7899 6.96228 64.7842C7.33179 61.1251 7.31461 58.1883 7.28883 54.1159C7.28453 53.0064 7.27594 51.8622 7.27594 50.583C7.27594 47.1806 7.02673 43.1039 6.81189 39.5101C6.64002 36.7386 6.49823 34.3456 6.49823 32.8054C6.49823 29.4466 8.70675 27.2146 8.72823 27.1928C8.84424 27.0754 8.87002 26.9013 8.79268 26.7577C8.71534 26.6142 8.55207 26.5402 8.39738 26.5794C8.36731 26.5837 7.60679 26.7403 6.8076 26.0834C5.95684 25.3829 4.93852 23.6425 4.93852 19.3134C4.93852 17.225 5.60451 15.0235 6.87204 12.9438C7.25016 12.326 7.67553 11.7212 8.14817 11.1338C8.2427 11.0164 8.33723 10.8989 8.43605 10.7814C8.62941 10.5508 8.83565 10.3202 9.04619 10.094C9.06338 10.0722 9.08486 10.0548 9.10205 10.0331C10.1376 8.92795 11.3492 7.89245 12.7242 6.93961C13.3085 6.53063 13.9659 6.11295 14.6921 5.69526C15.3237 5.33414 16.0069 4.97302 16.7502 4.61625C17.1627 4.42047 17.5924 4.22468 18.0392 4.03759C19.3197 3.48938 20.7462 2.97598 22.3317 2.52349C22.7313 2.41037 23.1395 2.3016 23.5605 2.19283C23.9343 2.09711 24.3168 2.00574 24.7078 1.92308C25.4984 1.74469 26.319 1.58371 27.1784 1.44448C27.5049 1.38792 27.8358 1.33571 28.1709 1.28785C28.5061 1.23999 28.8498 1.19213 29.1935 1.14862C29.533 1.10947 29.8767 1.07031 30.2291 1.03115C30.6845 0.983291 31.1486 0.939785 31.6212 0.904978C31.8231 0.887575 32.0294 0.87452 32.2356 0.861467C32.4633 0.844064 32.6911 0.831012 32.9231 0.817959C32.9747 0.813608 33.0262 0.809259 33.0821 0.809259C33.37 0.791855 33.6664 0.778801 33.9629 0.770099C34.6246 0.743994 35.3035 0.730942 35.9953 0.726592H36.4206C48.5073 0.726592 55.9149 4.10285 59.9968 6.93961C62.5232 8.693 64.4912 10.7118 65.8489 12.9438C67.1165 15.0235 67.7824 17.225 67.7824 19.3134C67.7824 19.4701 67.7824 19.6223 67.7781 19.7703C67.7696 20.2184 67.7524 20.6404 67.7223 21.032C67.6922 21.4236 67.6535 21.7847 67.6063 22.1241C67.5762 22.3503 67.5418 22.5635 67.4989 22.768C67.3141 23.7687 67.0434 24.504 66.7426 25.0479C66.4762 25.5308 66.1841 25.8615 65.9134 26.0834C65.8575 26.1312 65.8059 26.1704 65.7501 26.2052V26.2052Z" fill="white"/>
<rect x="25.022" y="21.3252" width="41.6887" height="4.31262" rx="2.15631" transform="rotate(45 25.022 21.3252)" fill="white"/>
<rect x="20.8032" y="51.5283" width="41.6887" height="4.31262" rx="2.15631" transform="rotate(-45 20.8032 51.5283)" fill="white"/>
</svg>
