<svg width="124" height="135" viewBox="0 0 124 135" fill="none" xmlns="http://www.w3.org/2000/svg">
<path d="M118.215 117.914C118.246 117.347 118.238 116.781 118.176 116.198C117.749 112.038 117.61 108.391 117.571 104.409C117.579 108.872 117.703 112.807 118.168 117.363C118.184 117.549 118.199 117.735 118.215 117.914Z" fill="white"/>
<path d="M120.442 46.9373L120.419 46.9528C122.22 44.5857 123.128 40.6119 123.128 35.0859C123.128 31.1199 121.855 26.9599 119.441 23.0482C116.895 18.9115 113.209 15.1706 108.498 11.9419C100.969 6.78845 87.3484 0.633789 65.1823 0.633789H64.965C57.421 0.633789 50.8861 1.34782 45.2204 2.49649L45.2592 2.48096C32.1815 4.59202 22.2549 10.2965 16.2399 14.6971C13.865 16.3425 11.7617 18.1276 9.93003 20.0214C9.79033 20.1611 9.6972 20.2542 9.65063 20.3085C9.63511 20.3163 9.62734 20.3318 9.61958 20.3396H9.61183C7.36107 22.4739 5.47509 24.7557 3.98493 27.185C1.57119 31.0966 0.29834 35.2567 0.29834 39.2227C0.29834 45.8663 1.60999 50.2824 4.20224 52.3391C5.04822 53.0144 5.90195 53.3171 6.5927 53.4335C5.28881 55.1021 3.11567 58.5947 3.11567 63.2903C3.11567 66.0765 3.37955 70.3685 3.68224 75.3357C4.07806 81.7232 4.52045 88.9722 4.52045 95.0027C4.52045 97.2845 4.53597 99.3334 4.54373 101.313C4.5903 108.531 4.62135 113.746 3.96164 120.203C3.5503 124.216 5.16464 128.066 8.39331 130.782C10.4268 132.497 13.0345 133.654 15.945 134.143C17.0316 134.329 18.1569 134.422 19.3134 134.422C21.5874 134.422 23.9779 134.073 26.4692 133.374C40.2997 129.501 58.0497 129.695 58.2282 129.695H58.4688C58.6473 129.695 76.3973 129.501 90.2278 133.374C92.8588 134.104 95.3735 134.453 97.7562 134.406C97.9269 134.406 98.0899 134.406 98.2529 134.399C112.495 134.174 117.346 124.263 117.555 123.812C119.061 121.515 119.744 118.83 119.464 116.067C118.797 109.609 118.836 104.394 118.874 97.1758C118.89 95.1967 118.898 93.1477 118.898 90.8659C118.898 84.8354 119.348 77.5865 119.744 71.1912C120.046 66.2318 120.31 61.9398 120.31 59.1535C120.31 55.0478 118.649 51.8735 117.361 50.0185C119.045 49.0018 120.442 46.9373 120.442 46.9373ZM118.16 47.3797C117.672 47.7212 117.198 47.8997 116.794 47.9929C116.554 48.0472 116.337 48.0705 116.15 48.0782C115.817 48.0938 115.599 48.0472 115.576 48.0472C115.537 48.0317 115.491 48.0317 115.444 48.0317C115.211 48.0317 114.986 48.1558 114.87 48.3732C114.769 48.5672 114.769 48.7923 114.87 48.9785C114.893 49.0329 114.94 49.0872 114.986 49.1415C114.994 49.1415 115.064 49.2114 115.18 49.3433C115.219 49.3821 115.258 49.4287 115.304 49.483C115.312 49.4908 115.32 49.4985 115.328 49.5141C115.421 49.6227 115.529 49.7547 115.661 49.9099C115.786 50.0729 115.933 50.2591 116.08 50.4687C116.112 50.5153 116.15 50.5618 116.181 50.6084C116.453 50.9887 116.748 51.4466 117.043 51.9666C117.113 52.0908 117.183 52.215 117.252 52.3469C117.346 52.5254 117.439 52.7039 117.532 52.898C117.609 53.0454 117.679 53.2006 117.749 53.3636C117.912 53.7284 118.067 54.1087 118.207 54.5123C118.277 54.7063 118.339 54.9004 118.401 55.1021C118.463 55.3039 118.517 55.5057 118.572 55.7153C118.735 56.3439 118.859 57.0114 118.937 57.7099C118.983 58.1756 119.014 58.6568 119.014 59.1535V59.9917C118.968 62.7314 118.727 66.6509 118.448 71.1136C118.06 77.5244 117.609 84.7966 117.609 90.8659C117.609 93.1477 117.594 95.1889 117.586 97.1681C117.578 98.371 117.571 99.5197 117.571 100.63C117.571 100.583 117.571 100.529 117.571 100.474C117.571 100.529 117.571 100.583 117.571 100.63C117.563 101.336 117.563 102.019 117.563 102.686C117.563 103.268 117.563 103.843 117.571 104.409C117.609 108.391 117.749 112.039 118.176 116.199C118.238 116.781 118.246 117.347 118.215 117.914C118.207 118.077 118.192 118.24 118.168 118.403C118.137 118.628 118.106 118.845 118.067 119.062C117.866 120.234 117.477 121.368 116.895 122.415C116.251 123.58 115.382 124.643 114.303 125.566C114.272 125.597 114.233 125.629 114.202 125.66C114.101 125.745 114.008 125.823 113.907 125.9C113.806 125.978 113.713 126.055 113.605 126.125C113.038 126.552 112.417 126.932 111.765 127.266C111.315 127.499 110.842 127.709 110.353 127.903C109.864 128.081 109.367 128.244 108.855 128.384C108.343 128.523 107.807 128.64 107.264 128.733C104.237 129.245 100.884 128.989 97.2983 127.988C83.3669 124.084 65.5471 124.263 65.1823 124.27H64.965C64.965 124.27 64.7632 124.263 64.4372 124.263C61.3637 124.263 45.5075 124.449 32.849 127.988C29.2633 128.989 25.9104 129.245 22.8835 128.733C20.1982 128.283 17.7999 127.22 15.945 125.66C13.05 123.223 11.6065 119.777 11.9712 116.199C12.6387 109.671 12.6077 104.433 12.5611 97.1681C12.5533 95.1889 12.5378 93.1477 12.5378 90.8659C12.5378 84.7966 12.0877 77.5244 11.6996 71.1136C11.3891 66.1697 11.133 61.901 11.133 59.1535C11.133 53.1618 15.1223 49.1803 15.1611 49.1415C15.3707 48.932 15.4172 48.6215 15.2775 48.3654C15.1378 48.1093 14.8429 47.9773 14.5635 48.0472C14.5092 48.0549 13.1354 48.3344 11.6918 47.1624C10.1551 45.9128 8.31569 42.8083 8.31569 35.0859C8.31569 31.3605 9.51869 27.4333 11.8083 23.7235C12.4912 22.6214 13.2596 21.5426 14.1133 20.4948C14.2841 20.2852 14.4548 20.0757 14.6333 19.8661C14.9826 19.4548 15.3551 19.0434 15.7354 18.6399C15.7665 18.6011 15.8053 18.57 15.8363 18.5312C17.7068 16.5598 19.8955 14.7127 22.3791 13.013C23.4346 12.2834 24.6221 11.5383 25.9337 10.7932C27.0746 10.1491 28.3086 9.50488 29.6513 8.86846C30.3964 8.51921 31.1725 8.16995 31.9797 7.83622C34.2926 6.8583 36.8693 5.94247 39.7332 5.1353C40.455 4.93351 41.1923 4.73948 41.9529 4.54545C42.6281 4.37471 43.3189 4.21172 44.0251 4.06425C45.4532 3.74604 46.9356 3.45888 48.4879 3.21052C49.0777 3.10962 49.6753 3.01649 50.2807 2.93111C50.8861 2.84574 51.507 2.76037 52.1279 2.68276C52.741 2.6129 53.3619 2.54305 53.9983 2.4732C54.821 2.38782 55.6592 2.31022 56.513 2.24813C56.8778 2.21708 57.2503 2.19379 57.6228 2.17051C58.0342 2.13947 58.4455 2.11618 58.8646 2.0929C58.9578 2.08514 59.0509 2.07738 59.1518 2.07738C59.6718 2.04633 60.2073 2.02305 60.7428 2.00753C61.9381 1.96096 63.1644 1.93768 64.4139 1.92991H65.1823C87.0146 1.92991 100.395 7.95263 107.768 13.013C112.332 16.1407 115.886 19.742 118.339 23.7235C120.629 27.4333 121.832 31.3605 121.832 35.0859C121.832 35.3653 121.832 35.637 121.824 35.9009C121.808 36.7003 121.777 37.4531 121.723 38.1516C121.669 38.8501 121.599 39.4943 121.513 40.0997C121.459 40.5033 121.397 40.8836 121.319 41.2483C120.986 43.0334 120.497 44.3451 119.953 45.3152C119.472 46.1767 118.944 46.7666 118.455 47.1624C118.354 47.2478 118.261 47.3176 118.16 47.3797Z" fill="white"/>
<path d="M88.4039 59.7743V36.8554C88.4039 33.6267 85.7806 31.0034 82.5519 31.0034C79.3233 31.0034 76.7 33.6267 76.7 36.8554V44.9116C76.7 45.1444 76.8241 45.3539 77.0259 45.4704L78.4928 46.3163L82.0319 48.3575L77.0259 51.2525C76.8241 51.3689 76.7 51.5785 76.7 51.8113V61.606C76.017 62.1958 75.4038 62.8711 74.8683 63.6239C74.6665 63.9188 74.7364 64.3224 75.0235 64.5242C75.2253 64.6639 75.4892 64.6794 75.691 64.5708C75.7764 64.5242 75.8617 64.4543 75.9238 64.369C76.4283 63.6472 77.0259 63.0108 77.6856 62.4597C77.965 62.2269 78.2522 62.0096 78.5549 61.8155C78.9197 61.5749 79.2922 61.3576 79.6803 61.1713C81.0152 60.5194 82.4898 60.1701 84.0111 60.1701C85.0899 60.1701 86.1299 60.3409 87.1 60.6669C87.3174 60.7367 87.5347 60.8143 87.7442 60.9075C87.9615 60.9928 88.1788 61.0937 88.3884 61.2024C91.6481 62.8167 93.8911 66.1851 93.8911 70.0657C93.8911 75.5141 89.4517 79.9535 84.0033 79.9535C83.8946 79.9535 83.7937 79.9768 83.7084 80.0234C83.4988 80.132 83.3591 80.3494 83.3591 80.5977C83.3591 80.9547 83.6463 81.2419 84.0033 81.2419C90.1657 81.2419 95.1872 76.2281 95.1872 70.058C95.1872 65.4478 92.3854 61.4818 88.3884 59.7743H88.4039Z" fill="white"/>
<path d="M84.3448 74.288V74.2725C84.6552 73.8224 84.9502 73.4033 85.2451 73.023C85.4624 72.7435 85.4081 72.3322 85.1287 72.1149C84.8493 71.8976 84.4379 71.9441 84.2206 72.2235C84.143 72.3244 84.0654 72.4253 83.98 72.5185C83.9723 72.5262 83.9645 72.5418 83.9567 72.5495C83.1573 73.5197 82.2493 74.4277 81.2403 75.2427C81.2093 75.2737 81.1704 75.297 81.1394 75.328C77.3597 78.3704 72.3925 80.1788 67.1381 80.4116C62.8151 80.2176 58.5775 78.9215 55.1237 76.7483C58.4067 72.371 58.0575 66.1232 54.076 62.1417C54.0294 62.0951 53.9828 62.0486 53.9285 62.002C53.944 61.9399 53.9595 61.8778 53.9595 61.808V36.8478C53.9595 33.6192 51.3362 30.9958 48.1076 30.9958C44.8789 30.9958 42.2556 33.6192 42.2556 36.8478V44.904C42.2556 45.1368 42.3798 45.3464 42.5816 45.4628L47.5876 48.3577L42.5816 51.2527C42.3798 51.3691 42.2556 51.5787 42.2556 51.8115V59.5805C40.7732 60.1315 39.415 61.0008 38.2663 62.1572C38.0102 62.4056 38.0102 62.8169 38.2663 63.073C38.3905 63.1972 38.5535 63.2593 38.7242 63.2593C38.895 63.2593 39.058 63.1972 39.1821 63.073C40.098 62.1572 41.138 61.4665 42.2633 60.9853C42.4729 60.8921 42.6902 60.8145 42.9075 60.7369C43.1171 60.6593 43.3344 60.5972 43.5517 60.5351C45.849 59.9065 48.3404 60.1238 50.5135 61.1793C50.9016 61.3656 51.2819 61.5829 51.6467 61.8235C51.9416 62.0175 52.2365 62.2348 52.5159 62.4677C52.741 62.6539 52.9661 62.8557 53.1757 63.073C56.707 66.6044 57.0019 72.1692 54.0604 76.0421C53.9828 76.1507 53.8974 76.2594 53.8043 76.368C53.618 76.5931 53.4162 76.8104 53.2067 77.0277C53.1989 77.0355 53.1834 77.051 53.1757 77.0588C53.1368 77.0976 53.0903 77.1442 53.0515 77.183C52.9428 77.2916 52.8264 77.4003 52.71 77.4934C52.4927 77.6875 52.2676 77.8737 52.0347 78.0445C50.3506 79.2863 48.3171 79.9537 46.1905 79.9537C43.5517 79.9537 41.0681 78.9215 39.1977 77.0588C39.0735 76.9346 38.9027 76.8725 38.7397 76.8725C38.5768 76.8725 38.406 76.9346 38.2818 77.0588C38.0257 77.3072 38.0257 77.7185 38.2818 77.9746C40.3929 80.0857 43.2025 81.2499 46.1905 81.2499C48.5034 81.2499 50.7153 80.5513 52.5703 79.2552C54.1458 82.9729 55.8766 88.8714 55.9542 96.8965V96.9741C55.9542 97.1449 55.9542 97.3156 55.9542 97.4864C55.9542 98.6816 56.1016 99.8147 56.3888 100.863C57.0563 103.307 58.5076 105.325 60.5721 106.707C62.4193 107.941 64.7399 108.624 67.0993 108.624H67.1924C69.5519 108.624 71.8647 107.941 73.7197 106.707C75.7841 105.325 77.2355 103.307 77.903 100.863C78.1901 99.8147 78.3376 98.6738 78.3376 97.4864V97.3932C78.3376 97.3156 78.3376 97.238 78.3376 97.1682C78.3919 88.0099 80.5651 81.537 82.4666 77.6176C82.5364 77.4779 82.6063 77.3382 82.6761 77.1985C83.2039 76.1585 83.7627 75.1883 84.337 74.3113C84.337 74.3113 84.337 74.3036 84.3448 74.2958V74.288ZM76.6534 100.513C75.2719 105.543 70.7005 107.328 67.1769 107.328H67.0993C63.5757 107.328 59.0043 105.55 57.6228 100.513C57.3667 99.5741 57.2348 98.5497 57.2348 97.4786C60.4246 97.044 63.63 98.1228 65.9196 100.405C66.8199 101.305 67.5339 102.337 68.0462 103.486C68.1548 103.726 68.3877 103.866 68.636 103.866C68.7214 103.866 68.8145 103.851 68.8999 103.812C69.2259 103.664 69.3734 103.284 69.2259 102.958C68.7214 101.825 68.0384 100.793 67.208 99.8768C69.9011 97.564 73.642 96.7801 77.0415 97.8434C77.0182 98.7825 76.8862 99.6828 76.6612 100.513H76.6534Z" fill="white"/>
<path d="M78.4152 109.144C76.1411 111.907 71.9578 113.544 67.208 113.544C67.1691 113.544 67.1226 113.544 67.0838 113.544C62.3339 113.544 58.1506 111.899 55.8765 109.144C55.6515 108.872 55.2401 108.825 54.9685 109.058C54.6968 109.283 54.6503 109.695 54.8831 109.966C57.3978 113.017 61.9536 114.833 67.0838 114.833H67.2157C72.3459 114.833 76.9017 113.017 79.4164 109.959C79.6414 109.679 79.6026 109.276 79.331 109.051C79.0516 108.825 78.648 108.864 78.4229 109.136L78.4152 109.144Z" fill="white"/>
<path d="M42.768 29.6375C44.1805 28.1318 46.0898 27.3014 48.1543 27.2936C50.211 27.3014 52.128 28.1396 53.5406 29.6375C53.6648 29.7695 53.8433 29.8393 54.014 29.8393C54.1692 29.8393 54.3322 29.785 54.4564 29.6608C54.7203 29.4202 54.7281 29.0089 54.4875 28.745C52.8576 27.0142 50.5758 26.013 48.2008 25.9897H48.1232C45.7483 26.013 43.4587 27.0142 41.8366 28.745C41.5883 29.0089 41.6038 29.4124 41.8677 29.6608C42.1316 29.9014 42.5351 29.8936 42.7835 29.6298L42.768 29.6375Z" fill="white"/>
<path d="M76.6998 29.8394C76.8706 29.8394 77.0413 29.7695 77.1733 29.6376C78.5858 28.1319 80.4951 27.3014 82.5595 27.2937C84.6163 27.3014 86.5333 28.1397 87.9458 29.6376C88.1864 29.9014 88.5978 29.9092 88.8617 29.6686C89.1255 29.428 89.1333 29.0167 88.8927 28.7528C87.2629 27.022 84.9811 26.0208 82.6061 25.9976H82.5285C80.1536 26.0208 77.8718 27.022 76.2419 28.7528C75.9935 29.0167 76.0091 29.4203 76.2729 29.6686C76.3971 29.785 76.5601 29.8471 76.7153 29.8471L76.6998 29.8394Z" fill="white"/>
<path d="M67.138 76.0033C65.6168 76.0033 64.1888 75.4134 63.1177 74.3346C62.8694 74.0862 62.458 74.0862 62.2019 74.3346C61.9535 74.5829 61.9535 74.9943 62.2019 75.2504C63.5213 76.5698 65.2753 77.2916 67.138 77.2916C69.0007 77.2916 70.7548 76.5621 72.0742 75.2504C73.3936 73.931 74.1154 72.177 74.1154 70.3143C74.1154 68.4516 73.3858 66.6975 72.0742 65.3781C70.7548 64.0587 69.0007 63.3369 67.138 63.3369C65.2753 63.3369 63.5213 64.0665 62.2019 65.3781C61.9535 65.6265 61.9535 66.0378 62.2019 66.294C62.4503 66.5501 62.8616 66.5501 63.1177 66.294C64.1965 65.2229 65.6246 64.6253 67.138 64.6253C68.6515 64.6253 70.0873 65.2151 71.1661 66.294C72.2372 67.3728 72.8348 68.8008 72.8348 70.322C72.8348 71.8432 72.2449 73.2713 71.1661 74.3424C70.0873 75.4134 68.6592 76.011 67.138 76.011V76.0033Z" fill="white"/>
<path d="M80.9221 71.1758H80.9764C81.2481 71.1758 81.512 71.0749 81.7137 70.8886C81.9311 70.6946 82.0552 70.4229 82.0708 70.128C82.0863 69.8331 81.9854 69.5537 81.7836 69.3364C81.5896 69.119 81.3179 68.9949 81.023 68.9793C80.7281 68.9638 80.4487 69.0647 80.2313 69.2665C79.7812 69.6778 79.7501 70.3764 80.1537 70.8265C80.2546 70.9352 80.371 71.0206 80.4952 71.0826C80.6272 71.1447 80.7669 71.1758 80.9143 71.1835L80.9221 71.1758Z" fill="white"/>
<path d="M89.1955 66.9924C89.4128 66.7983 89.537 66.5267 89.5525 66.2318C89.568 65.9368 89.4671 65.6574 89.2653 65.4401C89.0713 65.2228 88.7997 65.0986 88.5047 65.0831C88.2098 65.0676 87.9304 65.1685 87.7131 65.3703C87.2629 65.7816 87.2319 66.4801 87.6432 66.9303C87.8606 67.1709 88.1555 67.2873 88.4582 67.2873C88.7221 67.2873 88.9859 67.1942 89.1955 67.0001V66.9924Z" fill="white"/>
<path d="M87.255 75.3435C87.3637 75.4599 87.4956 75.553 87.6275 75.6151C87.7673 75.6772 87.9147 75.7083 88.0622 75.7083C88.3261 75.7083 88.5899 75.6151 88.7995 75.4211C89.0168 75.2271 89.141 74.9554 89.1565 74.6605C89.172 74.3656 89.0711 74.0861 88.8693 73.8688C88.6753 73.6515 88.4037 73.5273 88.1087 73.5118C87.8138 73.4963 87.5344 73.5972 87.3171 73.799C86.867 74.2103 86.8359 74.9088 87.2472 75.3512L87.255 75.3435Z" fill="white"/>
<path d="M42.3176 71.1758H42.3719C42.6436 71.1758 42.9075 71.0749 43.1093 70.8886C43.3266 70.6946 43.4507 70.4229 43.4663 70.128C43.4818 69.8331 43.3809 69.5537 43.1791 69.3364C42.9851 69.119 42.7134 68.9949 42.4185 68.9793C42.1236 68.9638 41.8442 69.0647 41.6269 69.2665C41.1767 69.6778 41.1457 70.3764 41.5492 70.8265C41.6501 70.9352 41.7666 71.0206 41.8907 71.0826C42.0227 71.1447 42.1624 71.1758 42.3098 71.1835L42.3176 71.1758Z" fill="white"/>
<path d="M50.5988 66.9924C50.8161 66.7983 50.9403 66.5267 50.9558 66.2318C50.9714 65.9368 50.8705 65.6574 50.6687 65.4401C50.4746 65.2228 50.203 65.0986 49.9081 65.0831C49.6131 65.0676 49.3337 65.1685 49.1164 65.3703C48.6663 65.7816 48.6352 66.4801 49.0466 66.9303C49.2639 67.1709 49.5588 67.2873 49.8615 67.2873C50.1254 67.2873 50.3893 67.1942 50.5988 67.0001V66.9924Z" fill="white"/>
<path d="M48.6588 75.3435C48.7675 75.4599 48.8994 75.553 49.0314 75.6151C49.1711 75.6772 49.3185 75.7083 49.466 75.7083C49.7299 75.7083 49.9937 75.6151 50.2033 75.4211C50.4206 75.2271 50.5448 74.9554 50.5603 74.6605C50.5758 74.3656 50.4749 74.0861 50.2732 73.8688C50.0791 73.6515 49.8075 73.5273 49.5126 73.5118C49.2176 73.4963 48.9382 73.5972 48.7209 73.799C48.2708 74.2103 48.2397 74.9088 48.6511 75.3512L48.6588 75.3435Z" fill="white"/>
</svg>
